<svg width="64" height="64" viewBox="0 0 64 64" fill="none" xmlns="http://www.w3.org/2000/svg">
<path d="M17.2211 40.5792C10.764 40.5792 5.51074 45.8325 5.51074 52.2896C5.51074 58.7467 10.764 64 17.2211 64C23.6782 64 28.9315 58.7467 28.9315 52.2896C28.9315 45.8325 23.6782 40.5792 17.2211 40.5792ZM17.2211 62.1213C11.7999 62.1213 7.38941 57.7108 7.38941 52.2896C7.38941 46.8684 11.7999 42.4579 17.2211 42.4579C22.6423 42.4579 27.0528 46.8684 27.0528 52.2896C27.0528 57.7108 22.6423 62.1213 17.2211 62.1213Z" fill="#71D840"/>
<path d="M18.1605 46.8057V45.7769C18.1605 45.258 17.7399 44.8375 17.2211 44.8375C16.7024 44.8375 16.2818 45.258 16.2818 45.7769V46.8507C14.7995 47.1381 13.6767 48.4452 13.6767 50.0101C13.6767 51.785 15.1206 53.2289 16.8955 53.2289H17.5468C18.2857 53.2289 18.8869 53.8301 18.8869 54.569C18.8869 55.308 18.2857 55.9091 17.5468 55.9091H16.5698C16.0105 55.9091 15.5554 55.454 15.5554 54.8945C15.5554 54.3757 15.1348 53.9552 14.616 53.9552C14.0973 53.9552 13.6767 54.3757 13.6767 54.8945C13.6767 56.3926 14.8212 57.6283 16.2818 57.7733V58.8022C16.2818 59.3211 16.7024 59.7415 17.2211 59.7415C17.7399 59.7415 18.1605 59.3211 18.1605 58.8022V57.7283C19.6427 57.4409 20.7655 56.1338 20.7655 54.5689C20.7655 52.7941 19.3216 51.3501 17.5468 51.3501H16.8955C16.1565 51.3501 15.5554 50.7489 15.5554 50.01C15.5554 49.2711 16.1565 48.6699 16.8955 48.6699H17.8724C18.4317 48.6699 18.8869 49.125 18.8869 49.6845V50.3358C18.8869 50.8547 19.3074 51.2751 19.8262 51.2751C20.345 51.2751 20.7655 50.8547 20.7655 50.3358V49.6845C20.7655 48.1864 19.6209 46.9508 18.1605 46.8057Z" fill="#71D840"/>
<path d="M58.8985 24.3957C58.5725 23.992 57.9811 23.9293 57.5776 24.2553C57.174 24.5813 57.1112 25.1727 57.4372 25.5762C58.8628 27.3412 59.6164 29.4759 59.6164 31.7496C59.6164 37.1708 55.2059 41.5813 49.7847 41.5813C44.3635 41.5813 39.953 37.1708 39.953 31.7496C39.953 26.3283 44.3635 21.9179 49.7847 21.9179C51.3101 21.9179 52.7717 22.2574 54.1287 22.9268C54.5941 23.1564 55.1572 22.9653 55.3867 22.5001C55.6162 22.0348 55.4251 21.4716 54.9598 21.2422C53.342 20.4438 51.6008 20.0392 49.7847 20.0392C43.3276 20.0392 38.0744 25.2924 38.0744 31.7496C38.0744 38.2067 43.3276 43.4599 49.7847 43.4599C56.2418 43.4599 61.4951 38.2067 61.4951 31.7496C61.4951 29.0802 60.5729 26.4685 58.8985 24.3957Z" fill="#71D840"/>
<path d="M49.409 28.0548H50.4422C51.012 28.0548 51.4755 28.5183 51.4755 29.0881C51.4755 29.607 51.8961 30.0274 52.4149 30.0274C52.9336 30.0274 53.3542 29.607 53.3542 29.0881C53.3542 27.4824 52.0479 26.1761 50.4422 26.1761H49.409C47.7861 26.1761 46.4657 27.4965 46.4657 29.1194V31.1859H46.4031C45.8843 31.1859 45.4638 31.6064 45.4638 32.1253C45.4638 32.6442 45.8843 33.0646 46.4031 33.0646H46.4657V35.1311C46.4657 36.7541 47.7861 38.0744 49.409 38.0744H50.4422C52.0479 38.0744 53.3542 36.7681 53.3542 35.1624V35.1311C53.3542 34.6122 52.9336 34.1918 52.4149 34.1918C51.8961 34.1918 51.4755 34.6122 51.4755 35.1311V35.1624C51.4755 35.7322 51.012 36.1957 50.4422 36.1957H49.409C48.822 36.1957 48.3444 35.7182 48.3444 35.1311V33.0646H50.4109C50.9297 33.0646 51.3503 32.6442 51.3503 32.1253C51.3503 31.6064 50.9297 31.1859 50.4109 31.1859H48.3444V29.1194C48.3444 28.5324 48.822 28.0548 49.409 28.0548Z" fill="#71D840"/>
<path d="M14.2153 23.4207C20.6724 23.4207 25.9256 18.1675 25.9256 11.7104C25.9256 5.25326 20.6724 0 14.2153 0C7.75814 0 2.50488 5.25326 2.50488 11.7104C2.50488 18.1675 7.75814 23.4207 14.2153 23.4207ZM14.2153 1.87867C19.6365 1.87867 24.047 6.28916 24.047 11.7104C24.047 17.1316 19.6365 21.5421 14.2153 21.5421C8.79404 21.5421 4.38355 17.1316 4.38355 11.7104C4.38355 6.28916 8.79404 1.87867 14.2153 1.87867Z" fill="#71D840"/>
<path d="M10.8337 12.3992H11.8624C11.6961 14.5996 11.0021 16.0358 10.9955 16.0496C10.6885 16.6635 11.1504 17.409 11.8356 17.409H15.8434C16.3622 17.409 16.7828 16.9885 16.7828 16.4696C16.7828 15.9508 16.3622 15.5303 15.8434 15.5303H13.1867C13.42 14.7568 13.6624 13.6855 13.7462 12.3992H14.8415C15.3602 12.3992 15.7808 11.9787 15.7808 11.4599C15.7808 10.941 15.3602 10.5205 14.8415 10.5205H13.7844C13.7992 9.79874 13.846 9.04502 13.9993 8.43132C14.2598 7.38941 14.6382 7.38941 14.8415 7.38941C15.0792 7.38941 15.3245 7.43851 15.4671 7.64341C15.6126 7.85282 15.6671 8.15102 15.6571 8.40314C15.629 8.91765 16.0213 9.35938 16.5364 9.39157C17.0529 9.42263 17.5 9.03037 17.5325 8.51261C17.541 8.37584 17.5925 7.15207 16.7808 6.28789C16.4476 5.93332 15.8408 5.51074 14.8415 5.51074C14.0765 5.51074 12.7129 5.83099 12.1768 7.97568C11.9763 8.77762 11.9208 9.68226 11.9051 10.5205H10.8337C10.3149 10.5205 9.89432 10.941 9.89432 11.4599C9.89432 11.9787 10.3149 12.3992 10.8337 12.3992Z" fill="#71D840"/>
<path d="M7.73785 28.8602C7.58956 29.8961 7.51466 30.9451 7.51466 32C7.51466 34.5129 7.93548 36.9778 8.76548 39.3261C8.94508 39.8342 9.53536 40.0897 10.0293 39.8729C10.4737 39.678 10.6984 39.1572 10.5367 38.7001C9.77808 36.5533 9.39333 34.2991 9.39333 32C9.39333 30.5974 9.53987 29.2073 9.82505 27.8483L11.6194 30.5199C11.9274 30.9783 12.5843 31.0697 13.0066 30.7127C13.3672 30.4079 13.4421 29.8641 13.1791 29.4724L10.3611 25.2767C10.1557 24.9708 9.77119 24.8095 9.40886 24.8771C9.2131 24.9137 9.06431 25.027 8.90889 25.1439C8.75947 25.2561 8.60216 25.3598 8.5081 25.5267L4.73674 29.1291C4.36664 29.4826 4.35274 30.0871 4.7063 30.4572C5.05987 30.8273 5.6643 30.841 6.0344 30.4875L7.73785 28.8602Z" fill="#71D840"/>
<path d="M41.5186 17.0332C40.9998 17.0332 40.5792 17.4537 40.5792 17.9726C40.5792 18.4915 40.9998 18.9119 41.5186 18.9119H45.5264C46.0452 18.9119 46.4657 18.4915 46.4657 17.9726V13.9647C46.4657 13.4458 46.0452 13.0254 45.5264 13.0254C45.0076 13.0254 44.5871 13.4458 44.5871 13.9647V16.0214C40.4916 12.1452 35.166 10.0195 29.4951 10.0195C28.9763 10.0195 28.5558 10.44 28.5558 10.9589C28.5558 11.4778 28.9763 11.8982 29.4951 11.8982C34.506 11.8982 39.2222 13.7131 42.9138 17.0332H41.5186Z" fill="#71D840"/>
<path d="M45.8049 45.3274C45.4183 44.9816 44.8244 45.0142 44.4786 45.4009C41.7851 48.4104 38.2051 50.5577 34.3121 51.5195L35.3451 49.4533C35.5772 48.9893 35.3891 48.4251 34.9251 48.193C34.461 47.9607 33.8968 48.149 33.6649 48.6131L31.661 52.6209C31.4289 53.0849 31.617 53.6491 32.081 53.8812L36.0888 55.8851C36.5322 56.1071 37.0977 55.9262 37.3345 55.4917C37.5831 55.0357 37.3934 54.4371 36.929 54.2049L35.057 53.2688C39.2003 52.1827 43.0022 49.8676 45.8786 46.6539C46.2244 46.2672 46.1915 45.6735 45.8049 45.3274Z" fill="#71D840"/>
</svg>
