<svg width="64" height="64" viewBox="0 0 64 64" fill="none" xmlns="http://www.w3.org/2000/svg">
<path d="M32 34.4533C40.1002 34.4533 46.6667 27.8868 46.6667 19.7867C46.6667 11.6865 40.1002 5.12 32 5.12C23.8998 5.12 17.3333 11.6865 17.3333 19.7867C17.3333 27.8868 23.8998 34.4533 32 34.4533Z" stroke="#71D840" stroke-width="2" stroke-linecap="round" stroke-linejoin="round"/>
<path d="M39.7867 16.2133C39.7796 15.0369 39.3073 13.911 38.4729 13.0816C37.6385 12.2522 36.5098 11.7867 35.3333 11.7867V10.6667C35.3333 10.2706 35.176 9.89078 34.8959 9.61073C34.6159 9.33067 34.2361 9.17334 33.84 9.17334C33.4439 9.17334 33.0641 9.33067 32.7841 9.61073C32.504 9.89078 32.3467 10.2706 32.3467 10.6667V11.7333H31.52V10.6667C31.52 10.2706 31.3627 9.89078 31.0826 9.61073C30.8026 9.33067 30.4227 9.17334 30.0267 9.17334C29.6306 9.17334 29.2508 9.33067 28.9707 9.61073C28.6907 9.89078 28.5333 10.2706 28.5333 10.6667V11.7333H25.8667C25.4706 11.7333 25.0908 11.8907 24.8107 12.1707C24.5307 12.4508 24.3733 12.8306 24.3733 13.2267C24.3733 13.6227 24.5307 14.0026 24.8107 14.2826C25.0908 14.5627 25.4706 14.72 25.8667 14.72H26.1333V19.4667V24.2133H25.8667C25.4706 24.2133 25.0908 24.3707 24.8107 24.6507C24.5307 24.9308 24.3733 25.3106 24.3733 25.7067C24.3733 26.1027 24.5307 26.4826 24.8107 26.7626C25.0908 27.0427 25.4706 27.2 25.8667 27.2H28.5333V28.24C28.5333 28.6361 28.6907 29.0159 28.9707 29.296C29.2508 29.576 29.6306 29.7333 30.0267 29.7333C30.4227 29.7333 30.8026 29.576 31.0826 29.296C31.3627 29.0159 31.52 28.6361 31.52 28.24V27.2H32.3467V28.24C32.3467 28.6361 32.504 29.0159 32.7841 29.296C33.0641 29.576 33.4439 29.7333 33.84 29.7333C34.2361 29.7333 34.6159 29.576 34.8959 29.296C35.176 29.0159 35.3333 28.6361 35.3333 28.24V27.2C36.5144 27.2 37.6472 26.7308 38.4823 25.8957C39.3175 25.0605 39.7867 23.9278 39.7867 22.7467V22.4267C39.777 21.3414 39.3689 20.2975 38.64 19.4933C39.3686 18.6784 39.7761 17.6264 39.7867 16.5333V16.2133ZM36.7733 16.2133V16.5333C36.7733 16.9153 36.6216 17.2815 36.3516 17.5516C36.0815 17.8216 35.7152 17.9733 35.3333 17.9733H29.1733V14.7733H35.3333C35.7152 14.7733 36.0815 14.9251 36.3516 15.1951C36.6216 15.4652 36.7733 15.8314 36.7733 16.2133ZM36.7733 22.7467C36.7733 23.1286 36.6216 23.4949 36.3516 23.7649C36.0815 24.035 35.7152 24.1867 35.3333 24.1867H29.1733V20.9867H35.3333C35.7152 20.9867 36.0815 21.1384 36.3516 21.4084C36.6216 21.6785 36.7733 22.0448 36.7733 22.4267V22.7467Z" fill="#71D840"/>
<path d="M16.24 42.9066H5.17333V58.8533H16.24V42.9066Z" stroke="#71D840" stroke-width="2" stroke-linecap="round" stroke-linejoin="round"/>
<path d="M32 36.2933V41.0933" stroke="#71D840" stroke-width="2" stroke-linecap="round" stroke-linejoin="round"/>
<path d="M17.2 50.88H24.1333" stroke="#71D840" stroke-width="2" stroke-linecap="round" stroke-linejoin="round"/>
<path d="M10.8533 49.2533C11.7517 49.2533 12.48 48.5251 12.48 47.6267C12.48 46.7283 11.7517 46 10.8533 46C9.95495 46 9.22667 46.7283 9.22667 47.6267C9.22667 48.5251 9.95495 49.2533 10.8533 49.2533Z" fill="#71D840"/>
<path d="M10.8533 53.3866C11.7517 53.3866 12.48 52.6584 12.48 51.76C12.48 50.8616 11.7517 50.1333 10.8533 50.1333C9.95495 50.1333 9.22667 50.8616 9.22667 51.76C9.22667 52.6584 9.95495 53.3866 10.8533 53.3866Z" fill="#71D840"/>
<path d="M37.5733 42.9066H26.5067V58.8533H37.5733V42.9066Z" stroke="#71D840" stroke-width="2" stroke-linecap="round" stroke-linejoin="round"/>
<path d="M32.1867 51.12C33.0851 51.12 33.8133 50.3917 33.8133 49.4934C33.8133 48.595 33.0851 47.8667 32.1867 47.8667C31.2883 47.8667 30.56 48.595 30.56 49.4934C30.56 50.3917 31.2883 51.12 32.1867 51.12Z" fill="#71D840"/>
<path d="M32.1867 55.2533C33.0851 55.2533 33.8133 54.525 33.8133 53.6267C33.8133 52.7283 33.0851 52 32.1867 52C31.2883 52 30.56 52.7283 30.56 53.6267C30.56 54.525 31.2883 55.2533 32.1867 55.2533Z" fill="#71D840"/>
<path d="M38.5333 50.88H45.4667" stroke="#71D840" stroke-width="2" stroke-linecap="round" stroke-linejoin="round"/>
<path d="M58.9067 42.9066H47.84V58.8533H58.9067V42.9066Z" stroke="#71D840" stroke-width="2" stroke-linecap="round" stroke-linejoin="round"/>
<path d="M53.52 49.2533C54.4184 49.2533 55.1467 48.5251 55.1467 47.6267C55.1467 46.7283 54.4184 46 53.52 46C52.6216 46 51.8933 46.7283 51.8933 47.6267C51.8933 48.5251 52.6216 49.2533 53.52 49.2533Z" fill="#71D840"/>
<path d="M53.52 53.3866C54.4184 53.3866 55.1467 52.6584 55.1467 51.76C55.1467 50.8616 54.4184 50.1333 53.52 50.1333C52.6216 50.1333 51.8933 50.8616 51.8933 51.76C51.8933 52.6584 52.6216 53.3866 53.52 53.3866Z" fill="#71D840"/>
</svg>
