<svg width="1180" height="407" viewBox="0 0 1180 407" fill="none" xmlns="http://www.w3.org/2000/svg">
<mask id="mask0_29_383" style="mask-type:alpha" maskUnits="userSpaceOnUse" x="0" y="0" width="1180" height="407">
<rect width="1180" height="407" rx="20" fill="#669E3A"/>
</mask>
<g mask="url(#mask0_29_383)">
<rect width="1180" height="407" rx="20" fill="#71D840"/>
<g opacity="0.2">
<path d="M473.696 289.02C493.594 294.815 483.182 336.078 481.794 350.45C480.637 362.736 478.786 374.79 476.241 386.613C475.778 389.163 468.374 414.662 466.755 419.762C466.523 420.457 466.523 420.689 466.523 420.689C466.06 420.457 465.598 420.226 464.904 419.994C435.981 405.621 406.134 393.104 376.749 379.659C370.502 376.877 362.635 373.4 358.933 367.141C355.231 360.65 354.306 352.073 363.329 350.682C368.882 349.755 374.435 350.914 379.757 352.073C378.137 349.059 368.419 346.046 365.412 344.423C359.859 341.41 354.074 338.86 348.752 335.614C340.192 330.283 330.936 326.11 322.376 320.547C314.509 315.447 296.924 300.611 303.634 289.484C307.567 282.761 319.136 284.848 325.846 285.311C336.721 286.007 347.133 289.716 357.313 293.193C345.513 286.702 333.482 280.211 322.838 271.866C312.195 263.521 302.708 253.321 297.155 240.803C294.61 235.008 293.222 227.126 297.85 222.722C302.014 219.013 308.262 219.94 313.583 221.331C328.623 225.736 342.505 234.081 353.843 245.208C334.407 223.881 314.277 201.627 306.411 173.81C305.485 170.333 304.791 166.855 305.254 163.378C305.716 159.901 307.799 156.424 311.038 155.033C316.128 152.715 322.144 156.424 326.309 160.133C346.67 177.982 357.313 202.091 371.196 224.577C368.188 212.059 366.568 199.309 366.568 186.559C366.568 175.664 367.957 164.074 375.361 156.192C376.286 155.265 377.443 154.338 378.6 154.106C380.682 153.874 382.302 155.497 383.69 156.888C392.714 167.087 396.879 180.764 399.887 193.977C403.357 209.277 405.44 224.808 406.597 240.572C406.134 231.763 405.903 223.649 408.679 214.145C410.993 206.727 415.62 193.746 425.57 196.295C428.346 196.991 430.428 198.845 432.279 201.164C437.833 208.813 439.915 222.49 441.535 229.676C444.774 244.049 446.162 258.653 447.088 273.025C447.55 280.675 448.244 288.093 448.707 295.743C449.17 301.77 451.715 310.115 450.79 315.91C451.715 309.188 452.872 302.465 456.574 296.902C460.276 291.338 467.217 287.166 473.696 289.02Z" fill="#264F21"/>
<path d="M422.793 337.005C422.793 337.237 422.793 337.469 422.562 337.469C432.511 354.855 442.923 372.704 452.178 391.017C455.186 363.664 459.813 336.31 466.292 309.651C466.523 309.188 466.986 308.956 467.449 308.956C467.911 309.188 468.143 309.651 468.143 310.115C461.433 337.701 456.805 365.75 453.797 394.031C458.194 402.608 462.59 411.417 466.755 419.994C466.523 420.689 466.523 420.921 466.523 420.921C466.06 420.689 465.598 420.457 464.904 420.226C460.97 412.112 456.805 403.767 452.641 395.654C452.409 395.654 452.409 395.654 452.178 395.422C429.503 379.659 403.126 368.763 376.055 363.895C375.592 363.895 375.129 363.432 375.361 362.968C375.361 362.505 375.824 362.273 376.286 362.273C402.895 366.909 428.577 377.34 450.79 392.64C441.072 373.632 430.197 354.623 419.785 336.542C409.142 326.574 394.565 321.242 379.294 316.606C362.866 311.506 346.67 306.638 330.011 305.247C329.548 305.247 329.085 304.783 329.317 304.32C329.317 303.856 329.78 303.393 330.242 303.624C347.133 305.247 363.329 309.883 379.988 315.215C393.64 319.619 407.059 324.256 417.471 332.369C412.612 324.024 407.754 315.447 402.895 306.87C375.824 280.443 345.282 258.189 311.964 240.34C311.501 240.108 311.269 239.644 311.501 239.181C311.732 238.717 312.195 238.485 312.658 238.717C344.356 255.639 373.741 276.734 399.887 301.538C397.342 296.902 394.796 292.266 392.251 287.629C374.667 254.712 352.917 216.463 324.689 181.923C324.458 181.46 324.458 180.996 324.921 180.764C325.383 180.532 325.846 180.532 326.078 180.996C354.306 215.768 376.055 254.017 393.64 287.166C395.491 290.643 397.342 294.12 399.424 297.597C392.251 275.112 375.361 216.695 381.145 179.605C381.145 179.141 381.608 178.91 382.071 178.91C382.533 178.91 382.996 179.373 382.765 179.837C375.592 224.808 402.663 302.233 404.051 305.942C409.373 315.447 414.695 324.719 420.017 333.992C420.248 334.455 420.479 334.919 420.942 335.383C420.016 301.074 419.554 265.607 429.503 231.763C429.734 231.299 430.197 231.067 430.66 231.067C431.123 231.299 431.354 231.763 431.354 232.226C420.942 265.839 421.868 302.002 422.793 337.005Z" fill="#95BC8F"/>
<path d="M265.225 188.414C262.912 189.109 261.292 191.427 261.523 193.977C256.896 194.441 252.268 193.282 248.566 192.123C246.253 191.427 243.939 190.268 241.856 189.341C238.617 187.95 235.146 186.559 231.444 185.632C232.37 185.4 233.527 184.937 234.452 184.705C238.386 183.546 242.551 182.387 246.253 180.532C250.649 178.446 254.351 175.664 256.896 172.651C258.053 173.346 259.672 173.346 261.061 172.882C263.837 171.955 265.457 168.942 264.531 165.928C263.606 163.146 260.598 161.524 257.59 162.451C254.814 163.378 253.194 166.392 254.119 169.405C254.351 170.332 254.814 170.796 255.276 171.491C252.963 174.273 249.723 176.823 245.558 178.909C243.013 180.068 240.237 180.996 237.692 181.923C238.617 176.36 241.625 171.26 244.633 166.623C245.327 166.623 246.021 166.623 246.484 166.392C249.26 165.464 250.88 162.451 249.955 159.437C249.029 156.656 246.021 155.033 243.013 155.96C240.237 156.887 238.617 159.901 239.543 162.914C240.005 164.537 241.162 165.696 242.551 166.16C239.311 171.028 236.303 176.591 235.609 182.618C235.146 182.85 234.452 182.85 233.99 183.082C231.907 183.777 230.056 184.241 227.974 184.937C222.189 186.791 217.793 189.109 214.554 192.123C215.017 191.427 215.248 190.5 215.711 189.805C220.338 179.837 224.966 169.405 228.668 158.974C229.362 158.974 230.056 158.974 230.519 158.742C233.295 157.815 234.915 154.801 233.99 151.787C233.064 149.006 230.056 147.383 227.048 148.31C224.272 149.238 222.652 152.251 223.578 155.265C224.04 156.887 225.197 158.046 226.586 158.51C223.115 168.942 218.256 179.141 213.86 188.877C209.695 197.686 205.53 206.727 202.291 215.999C202.522 209.509 201.828 202.786 200.209 195.368C199.514 192.818 198.82 190.268 197.895 187.718C198.82 184.241 201.134 176.823 206.687 170.101C208.075 171.028 209.695 171.26 211.315 170.564C214.091 169.637 215.711 166.623 214.785 163.61C213.86 160.596 210.852 159.205 207.844 160.133C205.067 161.06 203.448 164.073 204.373 167.087C204.605 167.782 204.836 168.246 205.299 168.71C200.671 174.273 198.126 180.532 196.969 184.705C195.812 181.691 194.193 178.678 193.036 175.896C191.879 173.114 190.491 170.564 189.334 167.782C190.028 164.537 191.648 161.755 193.499 158.742C194.193 157.583 194.887 156.424 195.581 155.265C196.969 152.715 198.126 149.933 198.82 147.151C199.514 147.151 200.209 147.151 200.903 146.919C203.679 145.992 205.299 142.979 204.373 139.965C203.448 137.183 200.44 135.561 197.432 136.488C194.656 137.415 193.036 140.429 193.961 143.442C194.424 145.065 195.581 145.992 196.969 146.688C196.275 149.238 195.118 151.787 193.73 154.337C193.036 155.496 192.342 156.656 191.648 157.583C190.259 159.901 188.871 162.219 187.946 164.769C187.02 162.451 186.326 160.133 185.632 157.815C184.475 153.178 183.549 146.224 185.4 139.501C185.863 139.501 186.326 139.501 186.789 139.27C189.565 138.342 191.185 135.329 190.259 132.315C189.334 129.534 186.326 127.911 183.318 128.838C180.542 129.765 178.922 132.779 179.847 135.792C180.31 137.647 181.93 138.806 183.549 139.27C181.698 146.456 182.624 153.41 184.012 158.278C184.938 161.524 186.095 164.769 187.251 167.782C187.251 168.014 187.251 168.014 187.483 168.246C187.946 169.637 188.64 170.796 189.102 171.955C188.177 171.491 187.483 171.028 186.789 170.796C185.169 170.101 183.549 169.869 182.161 169.405C181.236 169.173 180.31 168.942 179.385 168.71C178.922 168.71 178.691 168.478 178.228 168.246C179.847 162.683 178.691 157.583 177.534 153.874C177.534 153.642 177.302 153.41 177.302 153.178C178.691 151.787 179.385 149.701 178.691 147.615C177.765 144.833 174.757 143.21 171.749 144.138C168.973 145.065 167.353 148.078 168.279 151.092C169.204 153.874 172.212 155.496 175.22 154.569C175.451 154.569 175.451 154.337 175.683 154.337V154.569C177.302 159.901 177.534 163.842 176.377 167.782C172.906 166.392 169.667 164.073 167.122 161.524C167.584 160.364 167.584 159.205 167.122 158.046C166.196 155.265 163.188 153.642 160.18 154.569C157.404 155.496 155.784 158.51 156.71 161.524C157.635 164.305 160.643 165.928 163.651 165.001C164.577 164.769 165.502 164.073 166.196 163.146C169.667 166.623 174.063 169.173 178.922 170.564C179.847 170.796 180.773 171.028 181.93 171.26C183.549 171.723 184.938 171.955 186.326 172.651C188.177 173.346 190.491 174.737 191.648 177.055C191.648 177.287 191.879 177.287 191.879 177.287C194.193 182.387 196.738 187.486 198.358 193.05C197.895 192.586 197.432 191.891 196.969 191.427C194.887 189.573 192.342 188.414 189.797 187.255C189.103 187.023 188.408 186.559 187.714 186.327C188.871 184.937 189.103 183.082 188.64 181.228C187.714 178.446 184.706 176.823 181.698 177.75C178.922 178.678 177.302 181.691 178.228 184.705C179.153 187.486 182.161 189.109 185.169 188.182C185.632 187.95 185.863 187.95 186.326 187.718C187.251 188.182 188.177 188.646 189.102 189.109C191.648 190.268 193.73 191.427 195.812 193.05C198.589 195.368 200.209 199.077 200.44 202.554C200.44 202.786 200.44 203.018 200.671 203.25C202.06 213.681 201.365 222.954 198.358 230.835C198.358 231.067 198.358 231.299 198.358 231.531C197.201 236.862 196.275 242.426 195.812 247.989C195.812 248.453 196.275 248.917 196.738 248.917C196.969 248.917 196.969 248.917 197.201 248.917C197.663 248.685 197.895 248.453 197.895 247.989C198.82 229.676 205.762 212.754 213.397 196.295C214.323 199.541 215.248 202.554 216.405 205.8C214.323 207.19 213.397 209.74 214.323 212.059C215.248 214.84 218.256 216.463 221.264 215.536C221.495 215.536 221.495 215.536 221.727 215.304C221.727 215.304 221.727 215.304 221.958 215.304C224.503 214.145 225.66 211.363 224.735 208.581C223.809 205.8 221.032 204.409 218.256 205.104C217.099 201.859 215.942 198.382 215.017 194.904C218.025 191.427 222.421 188.877 228.899 186.559C229.362 187.486 229.362 188.646 229.362 189.805C229.362 190.964 229.362 192.123 229.362 193.514C229.362 196.295 229.362 199.309 229.825 202.091C230.056 203.481 230.288 204.872 230.519 206.031C228.668 207.422 227.974 209.74 228.668 212.059C229.593 214.84 232.601 216.463 235.609 215.536C238.386 214.608 240.005 211.595 239.08 208.581C238.154 205.8 235.146 204.177 232.37 205.104C232.139 203.945 231.907 203.018 231.676 201.859C231.444 199.077 231.444 196.295 231.213 193.514C231.213 192.355 231.213 190.964 231.213 189.805C231.213 188.877 231.213 187.95 230.982 187.023C234.915 187.95 238.617 189.341 242.319 190.964C244.633 191.891 246.947 192.818 249.26 193.745C254.351 195.6 259.21 196.064 263.143 195.6C264.3 198.15 267.076 199.541 269.853 198.613C272.63 197.686 274.249 194.673 273.324 191.659C271.241 189.109 268.233 187.486 265.225 188.414Z" fill="#95BC8F"/>
<path d="M1107.9 144.601C1104.89 144.138 1102.12 146.456 1101.88 149.469C1101.65 152.019 1103.04 154.337 1105.35 155.265C1103.74 159.669 1100.96 163.378 1098.18 166.16C1096.56 168.014 1094.71 169.637 1092.86 171.26C1090.32 173.81 1087.54 176.128 1085.22 179.141C1085.46 178.214 1085.46 177.055 1085.69 176.128C1086.38 171.955 1087.08 167.783 1087.08 163.61C1087.08 158.742 1086.15 154.337 1084.3 150.628C1085.46 149.701 1086.15 148.542 1086.38 147.151C1086.84 144.138 1084.53 141.356 1081.52 141.124C1078.51 140.661 1075.74 142.979 1075.51 145.992C1075.04 149.006 1077.36 151.788 1080.37 152.019C1081.29 152.019 1081.99 152.019 1082.68 151.788C1084.3 155.033 1085.22 159.205 1085.22 163.842C1085.22 166.623 1084.99 169.405 1084.53 172.187C1079.9 168.942 1076.43 164.074 1073.66 159.437C1073.89 158.974 1074.12 158.278 1074.35 157.583C1074.81 154.569 1072.5 151.788 1069.49 151.556C1066.48 151.092 1063.71 153.41 1063.48 156.424C1063.01 159.437 1065.33 162.219 1068.33 162.451C1069.95 162.683 1071.34 162.219 1072.5 161.06C1075.51 165.928 1079.21 171.028 1084.3 174.273C1084.3 174.737 1084.07 175.432 1084.07 175.896C1083.84 177.982 1083.37 180.069 1083.14 182.155C1082.45 188.182 1082.68 193.282 1083.84 197.454C1083.37 196.759 1082.68 196.064 1082.22 195.368C1075.04 187.023 1067.87 178.214 1059.77 170.564C1060 170.101 1060.24 169.405 1060.47 168.71C1060.93 165.696 1058.62 162.914 1055.61 162.683C1052.6 162.219 1049.82 164.537 1049.59 167.551C1049.13 170.564 1051.44 173.346 1054.45 173.578C1056.07 173.81 1057.69 173.114 1058.85 172.187C1064.17 177.287 1069.03 182.85 1073.89 188.414C1076.2 191.195 1078.51 194.441 1081.06 196.759C1083.37 198.845 1084.07 200.932 1084.53 204.177C1085.92 213.913 1087.31 223.649 1088.93 233.617C1089.16 234.544 1089.62 235.472 1090.32 235.24C1091.01 235.008 1091.01 234.312 1091.01 233.617C1090.78 228.285 1090.32 222.954 1089.62 217.854C1088.93 212.754 1087.77 207.422 1087.31 202.091C1088.46 202.322 1097.03 201.859 1097.26 202.786C1097.72 205.104 1099.57 206.959 1101.88 207.422C1104.89 207.886 1107.67 205.568 1107.9 202.554C1107.9 202.322 1107.9 202.322 1107.9 202.091C1107.9 202.091 1107.9 202.091 1107.9 201.859C1107.9 199.077 1105.82 196.759 1103.04 196.527C1100.26 196.295 1097.72 198.15 1097.03 200.932C1093.55 200.7 1090.08 200.236 1086.61 199.541C1084.76 195.368 1084.3 190.268 1084.99 183.546C1085.92 183.546 1087.08 184.009 1088 184.473C1089.16 184.937 1090.32 185.4 1091.24 185.864C1093.79 187.023 1096.33 188.182 1099.11 189.109C1100.5 189.573 1101.88 189.805 1103.04 190.036C1103.5 192.123 1105.35 193.977 1107.67 194.209C1110.68 194.673 1113.45 192.355 1113.68 189.341C1114.15 186.327 1111.83 183.546 1108.83 183.314C1105.82 182.85 1103.27 184.937 1102.81 187.95C1101.65 187.718 1100.73 187.487 1099.57 187.023C1097.03 186.096 1094.48 184.937 1091.93 183.778C1090.78 183.314 1089.62 182.85 1088.7 182.155C1087.77 181.691 1087.08 181.459 1086.15 181.228C1088.7 178.214 1091.47 175.432 1094.48 172.651C1096.33 171.028 1098.18 169.405 1099.8 167.551C1103.5 163.61 1106.28 159.669 1107.44 155.728C1110.21 155.728 1112.53 153.874 1112.99 150.86C1112.99 147.847 1110.91 145.065 1107.9 144.601Z" fill="#95BC8F"/>
<path d="M740.242 194.904C737.234 195.368 735.152 198.15 735.846 201.163C736.077 202.322 736.54 203.481 737.465 204.177C736.309 207.886 734.458 211.131 732.144 214.145C729.367 211.131 727.748 207.654 726.822 202.091C726.822 201.859 726.822 201.859 726.822 201.859C727.054 201.859 727.285 201.859 727.285 201.859C730.293 201.395 732.375 198.613 731.681 195.6C731.218 192.586 728.442 190.5 725.434 191.195C722.426 191.659 720.344 194.441 721.038 197.454C721.5 199.541 722.889 201.163 724.971 201.859C724.971 202.091 724.971 202.554 724.971 202.554C725.665 206.495 727.054 211.595 730.987 215.536C730.756 215.767 730.524 216.231 730.061 216.463C729.367 217.158 728.673 217.854 727.979 218.549C726.822 219.708 725.434 220.636 724.508 222.026C724.046 222.722 723.352 223.417 722.889 224.113C722.889 222.722 722.657 221.331 722.657 219.94C722.657 219.708 722.657 219.708 722.657 219.476C722.426 216.231 721.963 212.754 721.269 209.509C720.112 204.641 717.798 197.918 712.708 192.354C713.865 191.195 714.559 189.341 714.328 187.486C713.865 184.473 711.089 182.387 708.081 183.082C705.073 183.777 702.99 186.327 703.684 189.341C704.147 192.354 706.924 194.441 709.932 193.745C710.394 193.745 710.857 193.514 711.32 193.282C716.179 198.613 718.493 204.872 719.418 209.74C719.881 212.058 720.344 214.377 720.575 216.927C718.493 215.072 716.179 213.681 713.865 212.29C712.708 211.595 711.551 210.899 710.626 210.204C708.312 208.581 706.23 206.959 704.379 204.872C705.304 203.713 705.767 202.091 705.536 200.7C705.073 197.686 702.296 195.6 699.288 196.295C696.28 196.759 694.198 199.541 694.892 202.554C695.355 205.568 698.131 207.654 701.139 206.959C701.833 206.727 702.528 206.495 702.99 206.263C705.073 208.349 707.155 210.204 709.7 211.827C710.857 212.522 712.014 213.218 713.171 213.913C716.179 215.767 718.955 217.39 721.038 219.94C721.269 222.954 721.501 225.967 721.501 228.981C721.732 232.226 721.732 235.471 721.963 238.717C718.955 235.703 713.865 231.299 707.155 228.517C707.155 227.822 707.387 227.358 707.155 226.663C706.692 223.649 703.916 221.563 700.908 222.258C697.9 222.722 695.818 225.504 696.512 228.517C696.975 231.531 699.751 233.617 702.759 232.922C704.379 232.69 705.767 231.531 706.461 230.372C714.328 233.617 720.112 239.18 722.195 241.962C722.426 244.512 722.889 247.062 723.583 249.844C724.277 252.857 725.203 255.639 726.359 258.653C726.822 260.044 727.285 261.434 727.979 262.593C728.673 263.752 729.136 264.912 730.061 265.839C730.293 266.071 730.524 266.302 730.987 266.071C732.375 265.607 730.293 262.362 730.061 261.898C729.136 259.58 728.21 257.262 727.285 254.944C726.128 251.93 726.128 248.453 727.285 245.439C728.21 243.121 729.83 241.035 731.45 238.949C732.144 238.021 732.607 237.326 733.301 236.399C733.763 236.399 733.995 236.399 734.458 236.399C737.465 235.935 739.548 233.153 738.854 230.14C738.391 227.126 735.614 225.04 732.607 225.735C729.599 226.199 727.516 228.981 728.21 231.994C728.442 233.849 729.83 235.24 731.218 235.935C730.756 236.631 730.293 237.094 729.83 237.79C728.21 239.876 726.591 242.194 725.434 244.744C725.202 245.439 724.971 246.135 724.74 246.83C723.583 241.267 723.351 235.471 723.12 229.908C723.12 229.676 723.12 229.676 723.12 229.444C722.889 226.894 724.508 224.576 725.897 223.185C726.822 222.026 727.979 221.099 729.367 219.94C730.061 219.245 730.987 218.549 731.681 217.854C735.152 214.377 737.928 209.972 739.316 205.336C740.242 205.8 741.399 205.8 742.324 205.8C745.332 205.336 747.415 202.554 746.721 199.541C746.026 196.295 743.25 194.441 740.242 194.904Z" fill="#95BC8F"/>
<path d="M755.05 287.629C760.14 303.392 768.47 309.883 777.956 321.937C788.368 335.614 793.921 354.623 795.541 371.545C797.392 390.09 794.616 408.635 796.929 427.18C801.788 464.501 826.546 495.564 850.146 524.773C842.973 494.869 830.942 456.388 841.816 426.253C855.005 389.394 835.106 352.073 813.82 323.096C792.765 294.583 811.275 254.48 790.219 226.894C788.368 224.345 786.055 222.258 783.278 221.099C780.502 220.172 777.262 220.636 774.254 221.563C764.074 224.808 756.438 234.312 753.43 244.744C749.266 260.275 750.654 274.416 755.05 287.629Z" fill="#528C4D"/>
<path d="M841.585 494.405C841.122 494.405 840.66 494.173 840.428 493.709C832.33 476.092 823.769 458.01 820.298 438.307C818.216 426.948 818.216 415.125 817.985 403.535C817.753 389.162 817.522 374.095 813.588 360.186C809.886 346.973 802.945 334.687 796.235 322.864C789.294 310.81 782.353 298.06 778.419 284.384C775.411 273.72 774.486 261.898 775.18 248.221C775.18 247.526 775.874 246.83 776.568 246.83C777.262 246.83 777.956 247.526 777.956 248.221C777.262 261.434 778.188 273.025 780.964 283.456C784.666 296.901 791.608 309.187 798.318 321.242C805.027 333.296 812.2 345.582 815.902 359.259C819.836 373.631 820.067 388.699 820.298 403.535C820.53 414.894 820.53 426.484 822.612 437.843C825.851 457.083 834.412 475.165 842.511 492.55C842.742 493.246 842.511 494.173 841.816 494.405C842.048 494.405 841.816 494.405 841.585 494.405Z" fill="#95BC8F"/>
<path d="M939.226 209.045C942.928 225.735 939.689 245.439 937.838 260.275C934.367 289.252 926.963 318.228 911.461 343.264C901.049 360.418 887.166 375.486 876.986 392.872C848.989 439.929 850.609 498.81 859.401 553.053C858.244 545.404 850.146 535.436 846.907 528.018C842.742 518.977 839.04 509.473 835.801 499.969C830.248 483.974 825.157 467.979 819.141 452.215C806.879 419.762 820.761 371.777 836.263 342.568C851.072 314.287 866.805 288.556 870.276 256.103C871.664 243.817 871.433 231.299 873.515 219.245C875.597 206.959 880.688 194.904 890.174 187.023C899.661 179.141 914.469 177.055 924.418 184.473C932.747 190.268 937.144 199.077 939.226 209.045Z" fill="#95BC8F"/>
<path d="M886.241 459.865C873.515 470.761 870.738 482.583 865.417 497.651C861.021 509.937 851.534 531.495 853.617 544.708C846.907 502.982 849.22 452.911 876.754 419.066C886.241 407.476 897.578 397.508 907.759 386.381C924.418 368.068 937.144 346.278 945.01 322.865C946.861 317.301 948.481 311.738 951.952 306.87C955.422 302.233 960.975 298.524 966.76 299.452C971.619 300.147 975.321 303.856 978.097 308.029C991.054 327.037 985.733 353.232 975.321 373.631C964.446 395.422 948.481 414.43 929.045 429.266C915.163 440.161 899.429 448.275 886.241 459.865Z" fill="#95BC8F"/>
<path d="M855.699 539.145C855.236 539.145 854.774 538.913 854.542 538.449C847.832 525.7 844.824 512.255 842.511 499.737C841.354 493.942 839.965 488.146 838.346 482.583C836.495 475.86 834.875 468.906 833.718 461.952C829.091 432.975 832.099 406.549 842.048 385.222C846.213 376.413 851.997 368.531 857.781 361.113C862.64 354.855 867.499 348.364 871.201 341.178C878.374 327.964 883.233 311.969 885.315 295.511C886.009 290.874 886.472 286.006 886.935 281.138C887.86 271.402 888.786 261.434 891.1 251.698C895.727 232.226 901.743 211.827 915.857 195.832C916.32 195.368 917.245 195.136 917.708 195.6C918.171 196.064 918.402 196.991 917.939 197.454C904.288 212.986 898.272 232.922 893.876 251.93C891.562 261.434 890.637 271.402 889.711 281.138C889.249 285.775 888.786 290.643 888.092 295.511C886.009 312.433 880.919 328.66 873.515 342.337C869.582 349.523 864.723 356.245 859.864 362.504C854.311 369.922 848.526 377.572 844.593 386.149C834.875 407.012 832.099 432.975 836.495 461.256C837.652 468.21 839.271 474.933 841.122 481.656C842.511 487.219 844.13 493.246 845.287 499.041C847.601 511.327 850.609 524.541 857.087 536.827C857.55 537.522 857.087 538.449 856.393 538.681C856.162 538.913 855.93 539.145 855.699 539.145Z" fill="#528C4D"/>
<path d="M854.311 538.913C853.617 538.913 853.154 538.449 852.922 537.754C848.064 511.327 851.534 485.596 862.64 465.428C872.821 447.347 888.786 433.67 904.52 420.457C913.543 412.807 923.03 404.694 931.128 395.885C949.869 375.486 962.826 349.059 967.917 321.242C968.148 320.546 968.842 320.083 969.536 320.083C970.23 320.314 970.693 321.01 970.693 321.705C965.603 349.986 952.183 377.108 933.21 397.739C924.881 406.78 915.394 414.662 906.371 422.543C891.1 435.525 875.135 449.202 865.185 466.819C854.311 486.292 851.072 511.327 855.699 537.29C855.93 537.986 855.236 538.681 854.542 538.913H854.311Z" fill="#528C4D"/>
<path d="M942.234 155.264C942.234 155.264 942.465 155.264 942.234 155.264C943.854 158.046 945.01 161.292 946.167 164.073C947.787 168.246 949.407 172.65 952.183 176.359C957.505 184.009 964.909 187.486 972.313 190.963C976.015 192.818 979.948 194.441 983.419 196.759C983.882 196.991 984.576 197.454 985.27 197.918C986.658 198.613 988.972 200.004 990.129 201.163C990.823 202.554 991.749 204.177 992.443 205.568C992.443 206.031 992.674 206.263 992.905 206.495C996.607 213.217 1000.08 220.172 1003.55 227.126C999.153 223.185 993.137 219.94 985.733 217.622C982.262 216.463 978.791 215.535 975.321 214.608C968.379 212.754 961.207 210.899 954.96 207.422C954.497 207.19 954.034 207.19 953.571 207.422C953.109 207.654 952.877 208.118 953.109 208.581C954.034 216.463 960.513 222.026 966.76 227.126C976.246 234.776 985.964 241.498 997.302 242.194C1000.54 242.426 1003.55 242.194 1006.79 242.194C1008.18 242.194 1009.56 242.194 1010.95 242.194C1015.81 252.625 1020.21 263.289 1023.91 274.184C1022.06 270.707 1019.98 267.461 1017.2 264.68C1012.57 260.043 1006.79 256.103 1000.31 253.089C988.278 247.525 974.858 245.671 963.058 244.28C962.364 244.28 961.67 244.744 961.67 245.439C961.67 246.135 961.901 246.598 962.595 246.83C963.289 247.526 964.909 250.307 965.834 251.698C966.76 253.089 967.223 253.784 967.454 254.248C969.536 256.798 971.619 259.116 974.164 261.434C979.023 266.07 984.576 269.779 990.36 273.025C996.376 276.038 1002.62 278.356 1009.1 279.747C1010.72 279.979 1012.11 280.211 1013.5 280.443C1018.36 281.37 1022.75 282.065 1027.15 285.079C1027.38 285.079 1027.61 285.311 1027.61 285.311C1029.23 291.106 1030.85 296.901 1032.01 302.697C1025.53 301.306 1018.59 301.306 1010.95 302.465C1003.55 303.624 996.607 306.637 990.823 310.81C987.121 313.592 980.874 319.619 981.337 327.501C981.337 327.964 981.568 328.196 981.799 328.428C982.031 328.66 982.956 328.66 984.345 328.428C989.898 327.732 1001.93 324.487 1002.16 324.487C1008.64 322.401 1015.12 319.851 1021.13 316.605C1025.99 314.055 1029.93 310.578 1033.17 307.565C1037.79 332.137 1038.02 357.404 1030.85 382.672C1030.62 383.367 1031.08 384.063 1031.78 384.294C1032.01 384.294 1032.24 384.294 1032.24 384.294C1032.7 384.294 1033.17 383.831 1033.4 383.367C1042.88 349.754 1039.87 316.605 1030.39 284.847C1032.47 287.861 1035.02 291.106 1038.26 293.656C1041.26 295.974 1044.97 297.597 1050.06 298.756C1057.92 300.61 1066.02 301.074 1073.66 301.538H1073.89C1074.35 301.538 1074.58 301.306 1074.81 300.842C1075.04 300.379 1075.04 299.915 1074.58 299.451C1068.57 291.338 1061.16 284.384 1052.83 278.588C1049.59 276.27 1045.66 273.952 1041.26 273.488C1046.58 268.389 1051.21 262.361 1053.76 254.48C1057 244.976 1057.23 233.617 1054.68 219.94C1054.68 219.476 1054.45 219.244 1053.99 219.013C1053.76 218.781 1053.29 218.781 1052.83 218.781C1047.74 220.172 1044.5 224.576 1041.73 228.981C1037.33 235.703 1032.7 242.889 1029.69 251.234C1026.69 259.348 1026.92 267.925 1027.15 276.038C1022.98 263.521 1017.89 251.466 1012.34 239.412C1013.5 239.18 1014.42 238.717 1015.35 238.253C1019.05 236.167 1022.06 233.153 1024.84 230.371C1028.54 226.662 1032.93 221.563 1035.94 215.304C1038.02 210.667 1039.18 205.568 1040.11 199.54C1041.26 191.891 1042.19 184.009 1042.42 176.359C1042.42 175.896 1042.19 175.2 1041.49 174.968C1041.03 174.737 1040.34 174.968 1040.11 175.432L1025.99 193.05C1022.52 197.454 1018.82 202.09 1016.04 206.958C1011.88 214.376 1009.33 222.953 1009.1 231.531V232.226C1004.71 222.953 1000.08 214.145 995.219 205.336C996.376 200.236 999.153 196.295 1002.16 192.123C1003.09 190.963 1004.01 189.573 1004.94 188.182C1009.1 181.923 1011.65 174.737 1012.57 167.782C1013.73 157.583 1011.18 147.151 1008.64 138.11C1008.41 137.415 1007.94 137.183 1007.25 137.183C1006.56 137.183 1006.09 137.647 1005.86 138.11C1004.47 143.21 1001.93 148.078 999.384 152.715C997.533 156.192 995.682 159.669 994.294 163.61C991.98 169.869 990.592 176.823 990.36 185.168C990.129 189.109 990.592 193.282 991.054 197.222C989.435 193.745 987.584 190.036 985.733 186.559C984.113 182.155 982.956 177.982 981.568 173.346C980.874 171.259 980.411 169.173 979.717 167.087C979.717 164.769 979.717 162.451 979.486 160.132C979.254 155.264 979.023 150.396 979.717 145.528C980.18 142.978 980.874 140.197 981.337 137.647C982.031 134.401 982.956 131.156 983.188 127.679C983.419 124.202 983.419 120.956 982.725 117.711C981.799 113.307 980.18 108.67 978.097 103.57C977.172 101.484 976.015 99.3978 974.858 96.8479C974.627 96.3843 974.395 95.9207 973.933 95.2252C973.47 94.5298 972.313 92.6753 972.082 92.2117C972.082 91.5162 971.619 90.8208 970.925 90.8208C970.231 90.8208 969.536 91.2844 969.536 91.9799C969.305 97.0797 967.917 102.18 966.991 107.048C966.297 110.525 965.372 114.234 964.909 117.943C962.595 133.011 964.215 145.065 969.999 155.728C970.693 157.119 971.387 158.278 972.313 159.669C974.395 163.378 976.478 166.623 977.403 170.564C977.635 171.259 978.097 171.491 978.56 171.491C978.792 172.187 979.023 173.114 979.254 173.809C979.486 174.505 979.717 175.432 979.948 176.128C978.56 174.273 977.403 172.419 975.784 170.564C973.238 167.55 970.231 165.232 966.991 163.378C963.752 161.523 960.281 160.596 957.042 159.669C955.654 159.205 954.266 158.973 952.877 158.51C950.564 157.814 945.473 155.264 944.779 154.105C944.316 153.41 943.622 153.178 942.928 153.642C942.234 153.874 942.003 154.569 942.234 155.264ZM1010.95 305.247C1017.66 304.088 1023.68 304.088 1029.46 305.247C1019.98 306.406 1011.18 310.578 1002.62 314.751C998.227 317.069 993.6 319.155 988.972 321.01C988.509 321.242 988.278 321.705 988.509 322.401C988.741 322.864 989.203 323.096 989.666 323.096H989.898C994.525 321.242 999.153 318.924 1003.78 316.837C1012.11 312.665 1020.67 308.492 1029.93 307.333C1027.15 309.883 1023.91 312.665 1019.98 314.751C1014.19 317.996 1007.94 320.546 1001.47 322.401C999.847 322.864 987.815 325.646 983.882 326.341C984.345 320.083 989.898 315.215 992.443 313.36C997.533 308.956 1004.01 306.174 1010.95 305.247ZM977.403 144.833C976.709 149.701 976.94 154.569 977.172 159.205C974.858 151.555 973.701 144.137 973.238 137.183C973.007 133.938 973.701 130.692 974.164 127.679C975.089 122.579 976.015 117.479 974.164 112.147C973.933 111.684 973.47 111.452 973.007 111.452C972.544 111.684 972.313 112.147 972.313 112.611C973.933 117.479 973.007 122.115 972.313 127.215C971.85 130.461 971.156 133.706 971.387 137.183C971.619 143.906 973.007 151.324 975.089 158.973C974.858 158.742 974.858 158.51 974.627 158.278C973.933 157.119 973.238 155.728 972.544 154.569C966.991 144.369 965.603 132.779 967.685 118.406C968.148 114.929 969.074 111.22 969.768 107.743C970.693 104.034 971.387 100.325 972.082 96.6161C972.544 97.0797 972.776 97.5433 973.007 98.007C974.164 100.325 975.321 102.411 976.246 104.498C978.329 109.366 979.948 113.77 980.874 117.943C981.568 120.956 981.568 123.97 981.337 127.215C981.105 130.461 980.18 133.706 979.486 136.72C978.329 139.269 977.635 142.051 977.403 144.833ZM999.847 190.5C998.69 192.123 997.533 193.745 996.607 195.6C997.533 188.414 999.384 182.155 1001.93 176.128C1004.71 169.637 1007.25 162.682 1005.86 155.728C1005.86 155.264 1005.17 154.801 1004.71 155.033C1004.24 155.033 1003.78 155.728 1004.01 156.192C1005.17 162.451 1002.85 168.941 1000.08 175.432C997.07 182.618 995.219 189.804 994.294 199.077C993.6 194.441 993.137 189.804 993.137 185.168C993.368 177.287 994.525 170.564 996.839 164.537C998.227 160.828 1000.08 157.351 1001.93 154.105C1003.78 150.628 1005.63 147.151 1007.02 143.21C1008.87 151.092 1010.49 159.437 1009.56 167.55C1008.87 174.273 1006.33 180.996 1002.39 186.791C1001.7 187.95 1000.77 189.109 999.847 190.5ZM1013.96 235.935C1013.5 236.167 1013.27 236.399 1013.04 236.399C1014.19 234.312 1015.12 231.994 1016.04 229.908C1017.66 226.199 1019.51 222.258 1021.83 218.781L1023.22 216.463C1026.46 211.363 1029.93 206.263 1031.08 200.236C1031.08 199.772 1030.85 199.077 1030.39 199.077C1029.93 199.077 1029.23 199.309 1029.23 199.772C1028.07 205.568 1024.84 210.436 1021.6 215.304L1020.21 217.622C1017.89 221.331 1016.04 225.272 1014.42 228.981C1013.5 231.067 1012.57 232.921 1011.65 235.008C1011.65 234.312 1011.65 233.153 1011.65 232.458V231.531C1011.88 223.417 1014.19 215.304 1018.36 208.118C1021.13 203.249 1024.6 198.845 1028.07 194.441L1039.64 180.068C1039.18 186.327 1038.49 192.586 1037.56 198.845C1036.64 204.64 1035.71 209.508 1033.63 213.913C1031.08 219.708 1026.69 224.576 1023.22 228.285C1020.44 231.067 1017.43 233.849 1013.96 235.935ZM1031.78 278.125C1037.1 266.766 1041.73 254.943 1045.2 242.889C1045.43 242.426 1044.97 241.73 1044.5 241.73C1044.04 241.498 1043.35 241.962 1043.35 242.426C1039.87 254.48 1035.25 266.302 1029.93 277.661C1029.93 277.429 1029.93 277.197 1029.93 277.197C1029.69 268.62 1029.46 260.275 1032.24 252.394C1035.02 244.512 1039.64 237.326 1044.04 230.835C1046.35 227.358 1048.9 223.881 1052.37 222.258C1054.45 234.776 1054.22 245.207 1051.21 254.016C1047.51 264.448 1040.11 271.402 1031.78 278.125ZM1031.31 282.297C1040.11 283.456 1048.67 286.47 1056.07 291.338C1056.3 291.57 1056.53 291.57 1056.77 291.57C1057 291.57 1057.23 291.338 1057.46 291.106C1057.69 290.642 1057.69 289.947 1057.23 289.715C1049.82 284.847 1041.49 281.602 1032.7 280.443C1034.32 279.284 1035.94 277.893 1037.33 276.502C1037.79 276.502 1038.26 276.27 1038.49 275.807C1038.49 275.807 1038.72 275.807 1039.18 275.807C1043.58 275.807 1047.51 278.125 1050.98 280.675C1058.15 285.774 1064.63 291.802 1070.19 298.524C1063.48 298.06 1056.53 297.597 1049.82 295.974C1045.2 294.815 1041.73 293.424 1038.95 291.338C1036.17 289.252 1033.63 285.774 1031.31 282.297ZM1022.52 277.893C1012.11 269.779 1000.31 263.289 987.815 259.348C987.352 259.116 986.658 259.58 986.658 260.043C986.427 260.507 986.89 261.202 987.352 261.202C1000.08 265.143 1012.11 271.634 1022.29 280.211C1019.28 279.284 1016.51 278.588 1013.5 278.125C1012.11 277.893 1010.72 277.661 1009.1 277.429C1002.85 276.038 996.839 273.952 991.054 270.938C985.27 267.925 979.948 264.216 975.321 259.812C973.007 257.725 970.925 255.407 969.074 252.857C968.842 252.625 968.148 251.466 967.685 250.539C966.991 249.38 966.297 248.221 965.834 247.525C976.478 248.916 988.509 251.003 998.921 255.639C1005.17 258.421 1010.72 262.13 1015.12 266.766C1018.36 269.779 1020.44 273.72 1022.52 277.893ZM1004.24 231.299C1005.4 232.458 1006.33 234.08 1007.25 235.471C1005.4 234.312 1003.32 233.617 1001.24 232.921C998.69 231.994 996.145 231.299 993.6 230.603C985.039 228.053 976.246 225.503 969.305 220.172C968.842 219.94 968.148 219.94 967.917 220.404C967.685 220.867 967.685 221.563 968.148 221.794C975.321 227.59 984.345 230.14 993.137 232.69C995.682 233.385 998.227 234.08 1000.77 235.008C1003.78 235.935 1007.25 237.326 1009.56 239.876C1008.64 239.876 1007.94 239.876 1007.02 239.876C1004.01 239.876 1000.77 240.108 997.764 239.876C987.121 239.412 977.866 232.69 968.842 225.272C963.752 221.099 958.662 216.695 956.811 211.131C962.826 213.913 969.074 215.535 975.321 217.158C978.791 218.085 982.262 219.013 985.501 219.94C993.6 222.953 999.847 226.662 1004.24 231.299ZM946.861 158.742C949.175 159.901 951.258 160.828 951.952 161.06C953.34 161.523 954.96 161.987 956.348 162.451C959.587 163.378 962.826 164.305 965.834 165.928C968.842 167.55 971.387 169.869 973.933 172.65C976.94 176.128 979.254 180.068 982.031 184.705C982.494 185.632 983.188 186.559 983.65 187.718C984.113 189.109 984.807 190.732 985.501 192.123C983.65 190.268 981.568 188.877 979.486 187.254L978.56 186.559C971.387 180.996 964.446 174.737 957.968 168.246C957.505 167.782 957.042 167.782 956.579 168.246C956.117 168.71 956.117 169.173 956.579 169.637C963.058 176.359 969.999 182.386 977.172 188.182L978.097 188.877C980.642 190.963 983.419 193.05 985.501 195.368C985.27 195.136 985.039 195.136 984.807 194.904C981.105 192.354 977.172 190.732 973.47 188.877C966.066 185.4 959.356 182.155 954.497 175.2C951.952 171.723 950.563 167.782 948.944 163.378C948.018 161.755 947.556 160.132 946.861 158.742Z" fill="#95BC8F"/>
<path d="M253.425 279.516C255.508 291.802 255.045 302.697 255.045 314.983C252.5 311.737 251.111 308.028 248.566 304.783C245.558 301.074 242.319 297.829 239.311 294.12C233.758 286.702 228.899 278.356 225.66 269.548C220.107 254.248 218.719 237.326 223.346 221.794C235.841 239.644 248.566 258.189 253.425 279.516Z" fill="#6F9969"/>
<path d="M275.637 327.501C275.406 327.964 275.406 328.428 275.175 328.66C271.473 338.627 267.076 348.595 267.539 359.259C264.763 351.841 261.523 345.35 260.829 337.237C259.904 328.891 259.672 320.546 261.061 312.201C262.218 304.783 264.531 297.597 267.771 290.874C268.927 288.324 279.339 275.343 278.877 273.72C283.273 292.265 281.885 310.115 275.637 327.501Z" fill="#6F9969"/>
<path d="M240.931 319.387C229.825 309.651 215.479 302.697 207.381 290.411C213.166 311.042 226.123 330.514 245.558 339.555C256.433 344.655 264.3 350.218 269.853 361.577C264.3 345.814 253.657 330.514 240.931 319.387Z" fill="#6F9969"/>
<path d="M223.809 336.541C224.272 341.641 227.511 347.436 229.593 352.304C231.907 357.868 233.064 363.895 236.535 368.995C240.468 374.558 247.178 377.572 253.194 380.817C270.316 390.321 288.363 402.376 295.767 421.616C280.959 386.612 254.814 357.868 223.809 336.541Z" fill="#6F9969"/>
<path d="M303.171 340.714C310.344 354.854 312.195 371.545 309.418 387.076C308.262 393.567 306.411 399.826 305.254 406.317C304.56 410.026 302.709 413.503 301.32 416.98C300.395 419.066 296.693 425.557 297.155 427.643C292.528 412.575 290.908 397.044 292.297 381.281C292.991 374.327 294.379 367.604 296.461 361.113C297.387 357.868 304.56 343.496 303.171 340.714Z" fill="#6F9969"/>
<path d="M191.648 349.291C194.193 359.259 194.887 369.922 198.589 379.658C201.828 388.004 207.381 395.422 214.554 400.753C218.256 403.535 221.032 404.23 225.197 405.621C230.519 407.244 234.915 410.257 239.774 412.807C226.586 389.858 205.993 371.545 191.648 349.291Z" fill="#6F9969"/>
<path d="M250.88 307.333C255.045 324.719 259.441 342.105 266.845 358.331C270.547 366.677 275.175 374.558 279.339 382.903C283.273 390.785 286.281 399.13 289.289 407.244C295.073 424.398 300.626 441.784 301.783 459.865C302.94 477.483 301.089 495.1 301.552 512.718C302.246 530.568 305.254 548.881 315.203 563.948C316.36 565.571 318.674 563.717 317.748 562.094C298.775 533.117 306.179 496.491 305.022 464.038C304.791 454.997 303.634 445.956 301.552 437.147C299.469 428.57 296.693 419.993 293.916 411.416C291.14 403.071 288.132 394.726 284.661 386.844C280.959 378.731 276.563 370.849 272.63 362.968C263.606 344.886 258.516 325.646 253.888 306.174C253.194 304.319 250.417 305.478 250.88 307.333Z" fill="#6F9969"/>
<path d="M305.254 471.456C309.881 464.038 315.666 457.779 320.987 451.056C323.764 447.579 326.309 443.87 328.623 439.929C331.168 435.757 333.019 431.121 334.87 426.716C342.505 408.171 345.976 388.467 349.215 368.763C351.066 357.868 352.917 346.741 355.462 336.078C355.925 334.223 352.917 333.76 352.455 335.614C347.827 354.855 345.745 374.559 341.58 393.799C337.415 412.576 331.631 431.816 319.83 447.347C314.046 454.997 307.567 461.952 302.477 470.297C301.552 471.919 304.328 473.079 305.254 471.456Z" fill="#6F9969"/>
<path d="M304.097 498.81C302.477 490.464 300.858 481.887 297.387 473.774C293.916 465.66 288.363 459.17 282.579 452.447C277.026 445.956 271.241 439.466 264.763 433.439C258.053 427.412 250.417 422.543 243.707 416.748C236.535 410.721 230.75 403.303 226.354 394.958C225.429 393.335 222.652 394.262 223.578 396.117C227.28 403.303 232.139 409.794 237.923 415.357C244.17 421.616 251.574 426.252 258.516 431.584C265.225 437.148 271.241 443.407 277.026 449.897C282.81 456.388 289.057 462.879 292.991 470.528C297.618 479.106 299.469 488.842 301.32 498.578C301.32 501.128 304.328 500.664 304.097 498.81Z" fill="#6F9969"/>
<path d="M279.802 425.094C283.041 430.657 287.206 436.916 288.132 443.407C289.057 448.97 286.744 457.547 289.057 462.647C284.198 451.752 278.183 441.552 271.241 431.816C267.308 426.484 262.912 421.153 260.829 414.894C259.672 411.88 259.441 408.867 259.21 405.621C259.21 404.23 259.672 398.203 258.978 397.74C266.845 406.085 273.786 415.126 279.802 425.094Z" fill="#6F9969"/>
<path d="M360.09 288.324C358.702 290.179 361.71 304.087 361.71 306.869C361.71 313.36 361.247 320.082 360.09 326.573C357.776 339.091 352.686 350.218 350.603 362.736C349.215 343.959 340.654 326.805 347.827 307.796C350.835 300.61 355.462 294.351 360.09 288.324Z" fill="#6F9969"/>
<path d="M321.45 367.836C322.607 374.558 324.921 382.903 329.78 388.003C334.639 393.335 338.341 396.348 341.348 403.535C342.505 377.34 333.482 351.841 324.689 327.269C325.615 329.818 323.301 332.832 322.607 334.918C321.681 338.164 321.219 341.409 320.756 344.886C320.293 352.536 320.062 360.418 321.45 367.836Z" fill="#6F9969"/>
<path d="M378.137 368.995C374.667 381.513 368.651 393.335 360.784 403.535C356.851 408.635 352.223 413.039 347.364 417.676C345.282 419.53 343.894 421.848 341.811 423.471C340.192 424.63 338.803 425.557 337.184 426.484C336.49 426.948 333.019 428.339 332.788 429.034C338.572 410.258 348.753 394.494 362.866 380.586C367.494 375.949 372.122 371.313 378.137 368.995Z" fill="#6F9969"/>
<path d="M537.787 551.894C500.536 561.63 463.284 570.671 432.511 592.925C431.354 566.267 413.538 542.39 401.506 519.441C389.012 496.028 377.212 471.688 370.733 445.956C366.8 430.425 365.643 411.648 377.212 400.521C383.459 394.494 392.945 391.944 401.275 394.031C409.605 396.117 417.009 402.608 419.785 410.721C417.24 395.421 412.844 379.658 414.001 363.895C414.232 360.65 414.695 357.173 416.777 354.854C419.785 351.377 425.338 350.914 429.734 352.768C434.131 354.623 437.37 358.1 440.609 361.577C430.428 343.727 424.181 322.401 429.734 302.465C433.899 287.397 449.401 269.78 466.523 270.475C485.265 271.17 500.073 286.238 507.014 302.697C509.328 272.329 525.524 243.353 549.819 225.04C559.305 218.085 571.8 212.522 582.674 217.39C592.855 222.026 597.251 234.08 598.871 245.207C602.804 272.329 596.326 300.842 580.592 323.328C588.922 315.678 613.216 303.392 619.232 318.924C621.083 323.792 620.389 329.355 619.001 334.455C612.522 359.491 592.392 378.267 573.188 395.421C577.816 392.64 582.906 389.626 588.459 389.394C594.012 388.931 600.028 391.944 601.416 397.276C602.11 400.29 601.185 403.535 600.259 406.548C593.549 426.021 581.055 443.406 564.858 455.924C573.188 449.434 600.259 436.684 600.722 455.229C601.185 470.992 585.451 490.232 573.882 499.041C579.898 497.882 586.145 496.723 592.161 497.882C616.918 502.75 600.259 525.7 588.69 534.74C574.576 544.94 553.984 547.722 537.787 551.894Z" fill="#528C4D"/>
<path d="M598.639 341.641C564.627 358.563 533.391 381.049 506.783 408.171C501.692 413.271 497.065 418.602 492.206 423.934C500.536 404.23 509.328 384.758 518.352 365.286C527.144 346.509 536.168 327.732 545.191 308.955C545.654 308.955 546.117 308.956 546.58 308.492C560.694 295.742 573.188 281.37 583.6 265.375C584.988 263.289 581.98 260.97 580.592 263.057C571.568 276.734 561.156 289.483 549.356 300.842C552.364 294.815 555.372 288.556 558.38 282.529C559.537 280.211 555.835 278.82 554.678 281.138C545.423 299.915 536.399 318.692 527.375 337.468C531.077 311.505 537.556 285.774 547.042 261.202C547.968 258.884 544.266 257.261 543.34 259.811C532.466 288.324 525.293 318.228 522.054 348.827C512.799 368.299 504.006 387.771 495.445 407.475C493.363 393.103 490.355 378.731 486.884 364.359C486.422 351.377 488.967 338.396 493.826 326.11C494.751 323.791 491.049 322.401 490.124 324.719C486.653 333.296 484.571 342.336 483.645 351.377C478.786 333.296 472.77 315.678 465.829 298.292C464.904 295.974 461.202 297.597 462.358 299.915C470.919 321.242 477.861 343.032 483.414 365.286C483.414 365.749 483.414 366.213 483.414 366.677C483.414 367.372 483.645 367.604 484.108 368.067C486.653 378.731 488.735 389.394 490.586 400.289C481.794 382.672 468.374 367.604 455.186 353.232C453.566 351.377 450.327 353.695 452.178 355.55C468.143 372.936 484.571 391.017 492.206 413.966C492.437 414.43 492.669 414.662 492.9 414.893C490.586 420.457 488.041 426.02 485.727 431.584C472.308 463.806 460.045 496.491 449.864 529.872C447.782 519.672 445.005 509.936 441.535 500.2C438.064 480.496 437.601 460.329 440.378 440.393C440.84 437.843 436.907 437.379 436.444 439.929C434.362 454.997 434.13 470.065 435.519 485.132C427.421 466.587 417.703 448.738 407.754 431.352C406.597 429.266 402.895 430.657 404.283 432.975C413.307 449.202 422.562 465.428 430.197 482.582C418.86 472.846 406.828 463.806 394.102 456.156C392.02 454.765 389.706 458.01 391.789 459.169C406.828 468.442 420.711 479.105 433.668 490.928C439.915 506.227 445.005 521.99 447.319 538.449C442.691 553.98 438.527 569.744 434.825 585.507C427.883 615.411 423.024 646.01 420.711 676.609C420.479 679.159 424.413 679.622 424.644 677.072C428.346 630.247 438.064 584.116 451.252 538.913C454.954 529.64 461.433 521.759 468.143 514.572C475.084 506.923 482.257 499.505 489.661 492.319C490.355 491.623 491.049 491.159 491.743 490.464C493.363 490.928 494.52 492.319 495.677 493.014C497.065 493.941 498.453 494.637 499.841 495.332C503.081 497.187 506.089 499.041 509.328 501.127C515.806 505.068 522.054 509.241 528.069 513.413C530.152 514.804 532.466 511.791 530.383 510.4C523.905 505.764 517.195 501.359 510.253 497.187C507.014 495.1 503.775 493.246 500.536 491.391C499.379 490.696 498.222 490 497.296 489.305C515.112 487.219 532.466 493.478 550.282 494.637C552.827 494.868 553.289 490.928 550.744 490.696C532.928 489.537 515.344 483.51 497.528 485.364C510.022 474.005 523.442 463.342 537.325 453.606C547.042 446.652 557.223 440.393 567.635 434.366C569.717 433.207 568.329 429.498 566.015 430.888C529.226 451.983 495.908 478.873 467.449 510.168C463.747 514.109 460.045 518.281 456.574 522.918C457.037 521.295 457.5 519.904 457.962 518.281C466.986 490.696 477.167 463.342 488.273 436.452C488.504 436.452 488.735 436.22 488.967 435.988C495.908 427.643 503.081 419.53 510.716 411.88C510.948 411.88 511.41 411.88 511.873 411.648C519.277 407.707 527.607 407.475 535.936 407.244C545.654 407.012 555.603 406.78 565.321 406.548C567.866 406.548 567.172 402.607 564.627 402.607C554.446 402.839 544.497 403.071 534.317 403.303C528.532 403.535 522.516 403.766 516.963 405.157C533.854 388.931 552.595 374.558 572.494 362.04C581.517 356.245 591.004 351.145 600.722 346.277C602.573 344.191 600.953 340.714 598.639 341.641Z" fill="#295021"/>
<path d="M658.103 275.575C662.499 282.529 667.59 288.788 673.374 294.583C674.3 295.511 675.919 295.047 676.382 293.888C678.927 282.066 682.629 269.78 678.927 257.957C678.233 255.871 674.994 256.798 675.688 258.885C679.159 270.243 675.457 281.834 673.143 292.961C674.068 292.729 674.994 292.497 676.151 292.265C670.598 286.702 665.739 280.675 661.574 273.952C659.954 271.866 656.946 273.489 658.103 275.575Z" fill="white"/>
<path d="M660.88 362.968C647.46 346.741 637.973 324.951 641.444 304.088C643.758 290.411 646.766 276.734 648.617 262.593C649.774 254.48 650.699 246.367 651.856 238.253C652.319 234.312 656.252 221.563 654.633 218.317C671.523 250.539 706.924 267.23 725.434 298.756C743.25 329.587 739.548 376.877 740.242 411.88C714.791 401.217 688.645 390.09 668.747 371.081C665.97 368.763 663.425 365.981 660.88 362.968Z" fill="#6F9969"/>
<path d="M662.037 252.625C665.739 262.362 668.515 272.098 671.06 282.066C673.374 291.802 674.994 301.77 677.77 311.506C680.315 320.314 684.249 328.428 688.645 336.309C691.653 341.641 695.124 346.973 698.363 352.304C699.982 355.086 701.602 357.636 703.453 360.186C723.12 388.235 747.646 412.576 767.082 440.625C778.188 456.62 787.674 473.774 793.227 492.551C793.69 493.941 795.772 493.478 795.31 492.087C785.129 458.706 763.842 430.889 741.63 404.462C730.524 391.017 719.187 378.036 708.775 363.895C705.304 359.259 702.065 354.159 699.057 349.291C692.578 338.859 685.868 328.196 681.704 316.374C679.853 311.042 678.696 305.71 677.539 300.379C676.382 294.815 675.225 289.484 673.837 283.92C671.292 273.025 668.052 262.13 664.119 251.466C663.656 250.307 661.574 251.235 662.037 252.625Z" fill="#295021"/>
<path d="M694.661 378.731C707.849 384.758 721.038 390.554 734.226 396.581C734.92 396.812 735.846 396.117 735.615 395.19C729.83 375.949 726.128 356.477 724.277 336.541C724.046 335.151 721.963 335.614 722.195 337.005C724.046 356.941 727.748 376.645 733.532 395.653C733.995 395.19 734.458 394.726 734.92 394.263C721.732 388.235 708.543 382.44 695.355 376.413C693.967 375.949 693.273 378.268 694.661 378.731Z" fill="#295021"/>
<path d="M670.135 343.032C681.472 352.768 694.429 360.186 708.543 365.054C709.238 365.286 710.163 364.59 709.932 363.663C704.379 343.496 702.065 322.632 702.99 302.001C702.99 300.61 700.908 300.379 700.677 301.769C699.52 322.864 701.833 343.959 707.618 364.127C708.081 363.663 708.543 363.2 709.006 362.736C695.124 357.868 682.166 350.682 671.06 341.177C670.366 340.25 669.209 342.105 670.135 343.032Z" fill="#295021"/>
<path d="M653.707 294.352C655.789 301.538 659.491 308.492 665.045 313.824C670.135 318.692 677.076 321.01 683.555 323.328C684.249 323.56 684.943 323.096 684.943 322.401C684.943 305.711 686.563 289.02 689.57 272.561C689.802 271.171 687.719 270.475 687.488 271.866C684.249 288.556 682.629 305.479 682.629 322.401C683.092 322.169 683.555 321.706 684.017 321.474C678.002 319.156 671.292 317.069 666.433 312.433C661.342 307.333 657.64 301.074 655.789 294.12C655.558 292.497 653.476 292.961 653.707 294.352Z" fill="#295021"/>
<path d="M607.895 428.802C630.801 450.592 667.821 467.051 699.982 462.647C711.089 461.024 721.732 457.083 732.144 452.911C741.63 449.202 751.117 444.797 761.066 442.943C759.446 443.175 755.513 436.684 754.587 435.293C752.274 432.048 749.96 428.802 747.646 425.789C742.787 419.53 737.234 413.966 730.987 409.098C719.418 400.521 699.751 399.362 685.868 400.521C658.103 402.144 632.42 415.125 607.895 428.802Z" fill="#6F9969"/>
<path d="M696.049 453.606C702.759 447.811 710.626 443.639 718.955 441.089C726.591 438.771 734.689 436.221 742.787 437.611C743.944 437.843 744.175 436.452 743.713 435.757C738.622 429.266 733.069 423.007 727.054 417.444C721.963 412.576 715.716 408.867 708.775 406.549C707.387 406.085 706.692 408.171 708.081 408.635C713.865 410.721 719.65 413.271 724.046 417.444C730.293 423.703 736.771 430.193 742.093 437.148C742.324 436.452 742.787 435.989 743.019 435.293C734.689 433.902 726.128 436.452 718.03 439.002C709.469 441.784 701.371 445.957 694.661 451.984C693.504 452.911 694.892 454.534 696.049 453.606Z" fill="#295021"/>
<path d="M766.619 383.831C768.007 390.553 763.842 397.044 757.132 398.667C750.423 400.058 743.944 395.885 742.324 389.163C740.936 382.44 745.101 375.949 751.811 374.327C758.752 372.704 765.231 377.108 766.619 383.831Z" fill="#528C4D"/>
<path d="M801.788 396.58C803.177 403.303 799.012 409.794 792.302 411.416C785.592 412.807 779.113 408.635 777.494 401.912C776.105 395.19 780.27 388.699 786.98 387.076C793.69 385.453 800.4 389.858 801.788 396.58Z" fill="#528C4D"/>
<path d="M22.5112 337.701C18.8092 348.132 14.1817 360.418 13.4876 371.545C12.7934 381.977 22.0485 385.686 30.1467 389.395C34.0801 391.017 43.3352 396.117 45.1862 400.522C47.0372 405.39 40.3273 406.781 36.3939 406.085C34.0801 405.621 18.8092 402.376 18.8092 399.594C20.1975 426.716 27.6015 453.375 40.0959 477.715C44.9548 487.451 51.4333 487.451 60.6884 484.669C71.3317 481.424 81.7437 477.715 91.2302 471.688C103.493 464.038 115.293 455.461 126.168 445.725C132.647 439.93 185.169 385.222 174.757 379.195C172.675 378.036 170.361 378.499 168.047 378.963C163.188 379.89 158.098 380.586 153.239 380.818C151.619 380.818 149.768 380.818 148.38 380.354C146.761 379.659 145.604 378.036 145.835 376.413C146.066 375.022 146.992 373.863 148.149 373.168C156.478 366.445 169.667 368.068 176.84 360.186C179.385 357.405 180.773 354.159 181.93 350.682C186.326 337.932 187.714 324.256 189.103 310.81C189.797 303.624 190.722 296.438 191.416 289.252C191.416 288.325 191.648 287.397 191.416 286.702C190.954 284.384 188.177 282.993 185.632 283.225C183.318 283.457 181.004 284.848 179.153 286.007C173.369 289.716 167.816 293.425 162.031 296.902C160.18 298.061 158.329 299.22 156.247 299.452C154.165 299.683 151.851 298.293 151.388 296.438C151.157 295.047 151.851 293.888 152.314 292.729C161.337 277.43 181.93 270.243 182.161 250.076C182.393 241.731 178.922 233.617 175.22 226.199C172.212 220.172 168.741 214.145 165.039 208.35C162.494 204.409 159.024 196.064 154.396 194.441C149.768 192.818 144.447 197.918 140.976 200.236C122.235 212.29 103.956 224.576 88.2223 240.572C87.2968 241.499 86.3712 242.426 86.1399 243.585C85.9085 244.976 86.6026 246.135 87.2967 247.526C91.6929 254.944 95.3949 263.289 101.179 269.548C103.262 271.866 105.113 273.257 105.113 276.734C105.113 281.37 102.105 282.066 99.097 278.82C92.8498 272.098 87.2967 262.825 79.8927 257.262C78.9672 256.567 77.8103 255.871 76.6534 256.103C75.0338 256.335 73.8769 257.494 72.9514 258.885C66.0101 267.693 59.7629 276.734 53.9785 286.238C53.053 287.861 52.1275 289.484 52.1275 291.338C52.3588 293.656 54.4412 295.279 56.2923 296.902C64.3904 303.624 72.0259 312.433 76.6534 321.937C77.8103 324.256 78.7358 327.037 78.0417 329.587C77.8103 330.514 77.3475 331.21 76.422 331.905C74.8024 332.833 72.9514 332.369 71.3317 331.442C63.4649 327.501 58.3746 319.851 52.3589 313.129C50.9706 311.738 49.351 310.115 47.4999 309.883C43.1038 309.188 37.5507 315.215 34.7742 318.228C29.2212 324.024 25.0564 330.746 22.5112 337.701Z" fill="#528C4D"/>
<path d="M120.846 245.672C124.78 255.408 128.945 265.144 133.572 274.648C137.274 258.189 140.745 241.499 143.521 225.04C143.984 222.722 147.455 223.649 147.223 226.199C144.215 243.353 140.745 260.739 136.811 277.662C141.439 275.575 145.372 271.866 149.306 268.853C154.627 264.68 159.949 260.508 165.271 256.335C167.122 254.944 169.667 257.494 167.816 259.117C162.031 263.521 156.478 268.157 150.694 272.562C146.066 276.039 141.439 280.443 135.886 282.066C131.49 300.843 126.399 319.388 120.384 337.701C132.647 330.283 144.215 322.169 155.09 313.129C156.941 311.506 159.486 314.288 157.635 315.911C145.372 326.11 132.415 335.151 118.764 343.032H118.533C118.07 344.655 117.607 346.278 116.913 347.669C112.98 359.027 108.815 370.154 104.187 381.281C104.419 381.745 104.65 381.977 104.65 382.44C116.682 377.109 128.713 372.009 140.513 366.677C142.827 365.75 144.447 368.995 142.364 369.923C129.87 375.486 117.144 380.818 104.65 386.381C103.724 386.845 102.799 386.613 102.105 385.686C96.3204 399.131 90.0732 412.576 83.1319 425.557C84.2888 425.094 85.6771 424.63 85.9084 424.398C88.4536 423.471 91.2301 422.544 93.7753 421.617C100.022 419.299 106.038 416.98 112.054 414.662C123.391 410.026 134.498 404.926 145.372 399.363C147.455 398.204 149.306 401.681 147.223 402.608C128.713 412.112 109.74 420.226 90.3046 426.948C87.9908 427.876 85.4457 428.571 83.1319 429.498C82.4378 429.73 81.7437 429.962 81.0495 429.962C76.1906 438.771 71.1003 447.348 65.7787 455.925H66.01C67.6297 455.925 69.2493 455.461 70.869 454.998C74.1082 454.534 77.3475 453.839 80.3554 453.375C87.0653 452.216 93.7753 451.057 100.717 449.666C103.03 449.202 103.956 452.911 101.642 453.375C93.7752 454.766 86.1398 456.157 78.273 457.548C74.571 458.243 70.6376 458.938 66.9356 459.634C65.7787 459.866 64.3904 459.866 63.4649 459.634C63.0021 460.329 62.5394 461.025 62.0766 461.72C49.1195 481.424 34.3114 500.201 17.6523 517.123C16.0327 518.978 13.2561 516.196 15.1071 514.341C31.9977 496.956 46.8058 477.947 60.2256 457.548C58.3746 455.229 57.2177 452.216 55.8295 449.666C54.2098 446.652 52.8216 443.407 51.4333 440.162C48.6568 433.671 46.343 426.948 44.492 419.994C43.7979 417.676 47.4999 416.749 48.194 419.067C51.4333 430.889 55.8295 442.248 61.8453 453.143C62.0766 453.375 62.0766 453.607 62.308 453.839C67.8611 445.261 72.9514 436.453 77.8103 427.644C77.3475 426.717 77.1161 425.789 76.8848 424.862C76.1906 422.08 75.4965 419.299 74.8024 416.749C72.2572 406.317 69.7121 395.886 67.3983 385.454C64.8532 373.632 62.5394 361.809 60.457 349.755C59.9942 347.437 63.6963 346.51 64.159 348.828C68.5552 373.4 73.8769 397.972 80.124 422.08C80.124 422.312 80.124 422.544 80.3554 422.776C82.4378 418.835 84.5202 414.662 86.6026 410.722C91.4615 400.985 95.8576 391.249 100.022 381.05C93.5439 366.909 88.2222 352.305 84.5202 337.237C83.826 334.919 87.5281 333.992 88.2222 336.31C91.6929 349.987 96.3204 363.432 102.105 376.182C106.964 364.127 111.36 351.841 115.525 339.555C111.36 324.488 109.046 308.724 108.121 293.193C107.889 290.643 111.823 290.875 111.823 293.193C112.517 306.406 114.368 319.619 117.607 332.601C121.772 319.619 125.474 306.406 128.945 293.193C130.101 288.789 131.027 284.616 132.184 280.212C127.094 269.316 122.003 258.189 117.607 247.062C116.682 245.208 119.921 243.353 120.846 245.672Z" fill="#264F21"/>
<path d="M1231.92 263.752C1233.07 272.098 1234.93 281.834 1233.77 290.179C1232.84 298.06 1225.44 299.451 1218.96 301.074C1215.72 301.769 1208.09 304.319 1206.23 307.333C1204.15 310.578 1208.78 312.665 1212.02 312.665C1213.87 312.665 1225.67 312.433 1226.13 310.346C1221.27 330.282 1211.79 349.059 1199.29 365.286C1194.2 371.777 1189.58 370.849 1183.1 367.604C1175.69 363.663 1168.52 359.491 1162.27 353.695C1154.18 346.277 1146.77 338.164 1140.06 329.355C1135.9 324.023 1104.66 275.807 1113.45 273.025C1115.07 272.561 1116.92 273.257 1118.54 273.952C1122.01 275.343 1125.72 276.502 1129.42 277.429C1130.57 277.661 1131.96 277.893 1133.12 277.661C1134.28 277.429 1135.43 276.502 1135.66 275.111C1135.66 274.184 1135.2 273.025 1134.51 272.329C1129.19 266.302 1119.24 265.607 1115.07 258.652C1113.68 256.334 1112.99 253.553 1112.76 250.771C1111.37 240.571 1112.3 230.371 1112.99 219.94C1113.45 214.376 1113.92 209.045 1114.38 203.481C1114.38 202.786 1114.38 202.09 1114.84 201.627C1115.54 200.004 1117.85 199.309 1119.47 200.004C1121.32 200.468 1122.71 201.859 1123.86 203.018C1127.57 206.495 1131.27 209.972 1134.97 213.681C1136.13 214.84 1137.28 215.999 1138.9 216.231C1140.52 216.695 1142.37 215.999 1142.84 214.608C1143.3 213.681 1142.84 212.522 1142.61 211.595C1137.98 198.845 1123.86 190.732 1126.41 175.664C1127.57 169.405 1131.04 163.841 1134.97 158.742C1138.21 154.569 1141.68 150.628 1145.15 146.919C1147.47 144.369 1151.4 138.574 1155.1 138.11C1158.8 137.415 1162.04 142.051 1164.36 144.369C1176.62 155.96 1188.42 167.782 1197.91 181.923C1198.37 182.618 1199.06 183.545 1198.83 184.473C1198.83 185.4 1198.14 186.327 1197.44 187.254C1193.28 192.122 1189.11 197.686 1184.02 201.627C1182.17 203.018 1180.55 203.945 1180.09 206.495C1179.4 209.972 1181.48 210.899 1184.25 208.813C1189.81 204.64 1195.36 198.613 1201.61 195.6C1202.53 195.136 1203.46 194.904 1204.15 195.136C1205.31 195.368 1206 196.527 1206.47 197.686C1210.4 205.104 1213.64 212.986 1216.65 220.867C1217.11 222.258 1217.57 223.649 1217.11 225.04C1216.65 226.662 1214.8 227.59 1213.41 228.517C1206.47 232.458 1199.52 237.789 1194.67 244.28C1193.51 245.903 1192.35 247.757 1192.58 249.612C1192.58 250.307 1193.05 251.003 1193.51 251.466C1194.43 252.394 1196.05 252.162 1197.44 251.93C1203.92 250.075 1208.78 244.976 1214.1 241.035C1215.26 240.108 1216.65 239.18 1218.27 239.18C1221.51 239.18 1224.98 244.512 1226.36 247.294C1228.91 252.625 1230.99 258.189 1231.92 263.752Z" fill="#528C4D"/>
<path d="M1171.76 181.228C1167.36 187.95 1162.97 194.441 1158.11 200.932C1157.65 188.182 1157.65 175.432 1157.65 162.451C1157.65 160.596 1154.87 160.828 1154.87 162.683C1154.64 175.896 1154.87 189.341 1155.33 202.554C1152.09 200.468 1149.78 196.991 1147.23 194.209C1143.76 190.268 1140.52 186.559 1137.05 182.618C1135.9 181.228 1133.58 182.85 1134.74 184.241C1138.44 188.414 1141.91 192.586 1145.61 196.759C1148.39 200.004 1151.4 203.945 1155.33 205.8C1156.03 220.404 1157.18 235.008 1158.8 249.38C1150.7 242.194 1143.3 234.544 1136.36 226.199C1135.2 224.808 1132.89 226.431 1134.05 227.822C1141.68 237.094 1150.01 245.671 1159.03 253.553H1159.27C1159.5 254.712 1159.5 256.103 1159.73 257.262C1160.89 266.302 1162.5 275.111 1164.36 284.152C1164.12 284.384 1163.89 284.616 1163.66 284.847C1155.56 279.284 1147.23 273.72 1139.14 268.157C1137.52 267.23 1135.9 269.316 1137.28 270.475C1145.85 276.27 1154.41 282.297 1162.97 288.093C1163.66 288.556 1164.36 288.556 1164.82 287.861C1167.13 298.756 1169.91 309.651 1173.15 320.083C1172.45 319.619 1171.53 318.924 1171.3 318.924C1169.45 317.996 1167.59 316.837 1165.98 315.678C1161.81 313.128 1157.41 310.578 1153.48 307.797C1145.85 302.697 1138.21 297.365 1130.81 291.57C1129.42 290.411 1127.57 292.729 1128.95 293.888C1141.22 303.392 1154.41 312.201 1167.83 320.083C1169.45 321.01 1171.3 321.937 1172.92 322.864C1173.38 323.096 1173.84 323.328 1174.3 323.328C1176.62 330.514 1179.16 337.7 1181.94 344.655H1181.71C1180.55 344.423 1179.4 343.728 1178.24 343.264C1175.92 342.337 1173.61 341.409 1171.3 340.714C1166.44 338.859 1161.58 337.005 1156.72 335.151C1155.1 334.455 1153.94 337.005 1155.56 337.7C1161.12 339.787 1166.67 341.873 1172.22 344.191C1175 345.118 1177.54 346.277 1180.32 347.205C1181.25 347.437 1182.17 347.668 1182.87 347.668C1183.1 348.132 1183.33 348.827 1183.56 349.291C1190.5 365.75 1198.83 381.745 1208.55 396.812C1209.47 398.435 1211.79 396.581 1210.86 395.19C1200.91 379.89 1192.35 363.432 1185.41 346.509C1187.03 345.118 1188.42 343.032 1189.81 341.178C1191.43 339.091 1192.82 337.005 1194.43 334.687C1197.44 330.282 1199.99 325.414 1202.3 320.778C1203 319.156 1200.45 317.996 1199.76 319.619C1195.59 327.964 1190.73 335.846 1184.72 343.032C1184.49 343.264 1184.49 343.496 1184.25 343.496C1181.48 336.31 1178.7 329.123 1176.39 321.705C1176.85 321.01 1177.08 320.315 1177.31 319.851C1178.24 317.996 1179.16 315.91 1180.09 314.056C1183.56 306.638 1186.8 299.22 1190.04 291.802C1193.74 283.457 1196.98 274.879 1200.22 266.302C1200.91 264.68 1198.37 263.521 1197.67 265.143C1190.96 282.761 1183.56 300.379 1175.23 317.301C1175.23 317.533 1175 317.533 1175 317.765C1174.07 314.519 1172.92 311.274 1172.22 308.029C1170.14 300.147 1168.06 292.265 1166.44 284.152C1173.38 274.648 1179.16 264.448 1184.25 253.785C1184.95 252.162 1182.4 251.003 1181.71 252.626C1177.08 262.362 1171.76 271.634 1165.74 280.443C1163.89 270.707 1162.27 260.971 1160.89 251.235C1165.98 240.571 1170.14 229.213 1172.92 217.854C1173.38 215.999 1170.6 215.536 1170.14 217.39C1167.83 227.126 1164.36 236.862 1160.19 245.903C1159.03 235.703 1158.11 225.272 1157.41 215.072C1157.18 211.595 1156.95 208.35 1156.95 204.872C1162.27 197.454 1167.59 190.036 1172.45 182.387C1175 181.459 1172.92 179.605 1171.76 181.228Z" fill="#264F21"/>
<path d="M1178.7 435.988C1199.99 442.015 1188.65 486.292 1187.26 501.591C1186.11 514.573 1184.02 527.554 1181.25 540.304C1180.55 543.085 1172.92 570.439 1171.07 576.003C1170.83 576.698 1170.83 576.93 1170.83 576.93C1170.37 576.698 1169.68 576.466 1169.21 576.003C1138.21 560.703 1106.28 547.258 1074.81 532.886C1068.1 529.872 1059.54 526.163 1055.84 519.441C1051.91 512.486 1050.98 503.214 1060.7 501.823C1066.48 500.896 1072.5 502.055 1078.28 503.446C1076.66 500.432 1066.02 496.955 1062.78 495.1C1057 491.855 1050.75 489.073 1044.97 485.596C1035.94 479.801 1025.76 475.396 1016.51 469.601C1008.18 464.269 989.203 448.274 996.376 436.452C1000.54 429.266 1013.04 431.352 1019.98 431.816C1031.55 432.743 1042.88 436.452 1053.76 440.161C1041.03 433.207 1028.31 426.252 1016.97 417.212C1005.63 408.171 995.451 397.276 989.435 384.063C986.658 377.804 985.039 369.458 990.129 364.822C994.525 360.881 1001.24 361.809 1007.02 363.431C1023.22 368.299 1038.02 377.108 1050.06 388.931C1029.23 366.213 1007.48 342.105 999.384 312.433C998.459 308.724 997.533 305.015 998.227 301.306C998.69 297.597 1001 293.888 1004.24 292.265C1009.8 289.715 1016.04 293.656 1020.67 297.829C1042.42 317.069 1053.76 342.568 1068.8 366.677C1065.56 353.463 1063.71 339.787 1063.71 325.878C1063.71 314.287 1065.1 301.769 1073.19 293.192C1074.12 292.265 1075.28 291.106 1076.66 290.874C1078.75 290.642 1080.83 292.265 1082.22 293.888C1091.93 304.783 1096.33 319.387 1099.57 333.759C1103.27 350.218 1105.59 366.908 1106.74 383.599C1106.28 374.095 1106.05 365.286 1109.06 355.318C1111.6 347.436 1116.46 333.528 1127.1 336.309C1129.88 337.005 1132.19 338.859 1134.28 341.641C1140.29 349.754 1142.61 364.59 1144.23 372.008C1147.7 387.308 1149.08 402.839 1150.24 418.602C1150.94 426.716 1151.4 434.829 1152.09 442.943C1152.56 449.433 1155.33 458.242 1154.41 464.733C1155.56 457.547 1156.72 450.361 1160.65 444.334C1164.36 438.307 1171.99 433.902 1178.7 435.988Z" fill="#264F21"/>
<path d="M1124.33 487.219C1124.33 487.451 1124.33 487.682 1124.1 487.682C1134.74 506.227 1145.85 525.468 1155.79 544.94C1159.03 515.732 1163.89 486.292 1170.83 457.547C1171.07 457.083 1171.53 456.62 1171.99 456.851C1172.45 457.083 1172.92 457.547 1172.69 458.01C1165.51 487.451 1160.42 517.818 1157.41 547.953C1162.04 557.226 1166.67 566.498 1171.3 575.771C1171.07 576.466 1171.07 576.698 1171.07 576.698C1170.6 576.466 1169.91 576.234 1169.45 575.771C1165.28 566.962 1160.88 558.153 1156.49 549.576C1156.26 549.576 1156.26 549.576 1156.03 549.344C1131.73 532.422 1103.5 520.831 1074.58 515.5C1074.12 515.5 1073.66 514.804 1073.89 514.341C1073.89 513.877 1074.35 513.413 1075.04 513.645C1103.5 518.745 1131.04 529.872 1154.87 546.099C1144.46 525.7 1132.89 505.532 1121.55 485.828C1109.98 475.165 1094.48 469.601 1078.05 464.269C1060.47 458.706 1043.11 453.606 1025.07 451.983C1024.6 451.983 1024.14 451.52 1024.14 451.056C1024.14 450.593 1024.6 450.129 1025.07 450.129C1043.11 451.752 1060.7 456.851 1078.28 462.415C1093.09 467.051 1107.21 472.151 1118.31 480.728C1113.22 471.687 1107.9 462.647 1102.81 453.374C1073.89 425.093 1041.03 401.217 1005.4 382.208C1004.94 381.976 1004.71 381.281 1004.94 381.049C1005.17 380.585 1005.86 380.354 1006.33 380.585C1040.34 398.667 1071.8 421.384 1099.8 447.811C1097.02 442.943 1094.25 437.843 1091.7 432.975C1072.96 397.739 1049.59 356.709 1019.51 319.619C1019.28 319.155 1019.28 318.692 1019.75 318.228C1020.21 317.996 1020.67 317.996 1021.13 318.46C1051.44 355.55 1074.81 396.812 1093.55 432.048C1095.64 435.757 1097.49 439.466 1099.57 443.406C1091.93 419.298 1073.66 356.709 1079.9 316.837C1079.9 316.374 1080.37 315.91 1081.06 316.142C1081.52 316.142 1081.99 316.837 1081.75 317.301C1074.12 365.518 1103.04 448.506 1104.43 452.447C1109.98 462.647 1115.77 472.615 1121.55 482.351C1121.78 482.814 1122.25 483.278 1122.48 483.973C1121.55 447.115 1120.86 409.098 1131.73 373.167C1131.96 372.704 1132.43 372.24 1132.89 372.472C1133.35 372.704 1133.58 373.167 1133.58 373.631C1122.48 410.953 1123.4 449.665 1124.33 487.219Z" fill="#95BC8F"/>
<path d="M163.651 96.1525C163.188 95.6889 162.263 95.6889 161.8 96.1525C161.106 96.848 155.553 98.007 153.008 98.2388C151.62 98.2388 150 98.2388 148.612 98.4706C145.141 98.4706 141.67 98.4706 137.968 99.6297C134.498 100.557 131.027 102.18 127.788 104.266C125.937 105.657 124.086 107.048 122.235 108.439C122.697 107.743 123.16 107.048 123.392 106.352C123.854 105.657 124.317 104.961 124.78 104.266C125.243 104.498 125.937 104.266 126.168 103.57C128.019 100.093 130.796 97.3116 133.803 94.5298C134.96 93.3708 135.886 92.4435 137.043 91.2845C145.372 82.4756 150 71.3487 151.851 56.0491C152.314 52.3401 152.314 48.6311 152.545 45.1539C152.776 40.0541 153.008 34.9542 153.933 29.8544C154.165 29.1589 153.702 28.4635 153.008 28.2317C152.314 27.9999 151.619 28.4635 151.388 29.1589C151.157 29.6226 149.768 31.0134 148.843 31.7089C148.38 32.1725 147.686 32.6361 147.455 32.8679C145.604 34.9542 143.984 36.8087 142.596 38.4314C139.125 42.604 136.349 46.7766 134.498 50.7174C132.878 53.731 131.952 56.7445 131.49 60.2217C131.027 63.6989 130.796 66.9442 130.796 70.4214C130.796 72.9713 130.796 75.7531 130.333 78.5348C129.639 83.4029 128.25 88.0391 126.862 92.6753C126.168 94.7617 125.474 97.0798 124.78 99.3979C123.623 101.252 122.466 103.107 121.309 104.961C118.995 108.902 116.682 112.843 113.905 116.552C111.129 119.334 108.583 122.347 106.038 125.361C107.658 121.652 109.046 117.943 109.972 114.002C111.823 106.12 112.517 98.9343 111.591 92.2117C111.129 88.2709 110.203 84.3301 109.509 80.3893C108.352 75.2895 107.195 69.9578 107.195 64.6261C107.195 63.9307 106.732 63.4671 106.27 63.2353C105.576 63.0034 105.113 63.2353 104.881 63.9307C100.254 72.2759 94.9322 81.5484 93.5439 91.7481C92.387 98.7024 93.3125 106.352 95.6263 113.538C96.0891 115.161 96.7832 116.552 97.246 117.943C98.8656 122.579 100.485 127.215 100.485 132.315C93.5439 139.501 86.834 147.151 80.1241 154.801L80.3554 154.105C81.5123 145.76 81.5123 136.951 79.1986 128.606C77.8103 123.043 75.4965 117.711 73.1828 112.611L64.1591 91.7481C63.9277 91.2845 63.4649 90.8209 62.7708 91.0527C62.3081 91.0527 61.8453 91.5163 61.6139 91.9799C59.9943 99.6297 58.8374 107.279 57.9119 115.161C57.2178 121.188 56.9864 126.288 57.9119 131.388C59.0688 138.11 62.0767 144.138 64.6218 148.774C66.4728 152.251 68.7866 155.96 71.7945 158.973C72.4886 159.669 73.4141 160.364 74.3397 160.828C66.0101 170.796 57.9119 181.459 50.7392 192.354C53.053 184.473 55.3668 176.359 54.6726 167.782C53.9785 159.205 51.4333 150.86 48.6568 143.21C47.0372 138.342 44.9548 133.242 40.5586 130.461C40.3273 130.229 39.8645 130.229 39.4018 130.229C38.939 130.229 38.7076 130.692 38.4762 130.924C32.4605 143.442 29.9153 154.337 30.3781 164.537C30.8408 172.882 33.6173 179.837 37.5507 186.327C33.1546 185.632 28.7584 186.791 25.0564 188.182C15.5699 191.659 6.77763 196.527 -1.32056 202.554C-1.78331 202.786 -2.01469 203.481 -1.78331 203.945C-1.78331 204.409 -1.32056 204.64 -1.08919 204.872H-0.857808C6.77763 206.495 14.6444 208.118 22.7426 208.349C28.0643 208.581 31.9977 207.886 35.4683 206.495C39.1704 205.104 42.4096 202.554 45.1862 200.004C28.2957 228.749 16.4955 259.812 17.1896 294.815C17.1896 295.279 17.421 295.742 18.1151 295.974C18.3465 295.974 18.3465 295.974 18.5778 295.974C19.272 295.974 19.9661 295.279 19.9661 294.583C19.5034 268.157 26.2133 243.817 37.088 221.331C39.4018 225.272 42.1783 229.444 46.3431 233.153C51.4333 237.789 56.755 241.962 62.5394 245.671C62.7708 245.671 73.6455 251.93 78.7358 254.016C79.8927 254.48 80.8182 254.712 81.281 254.712C81.7437 254.48 81.9751 254.248 82.2065 253.784C84.7516 246.367 80.1241 238.949 77.3475 235.24C72.9514 229.444 66.9356 224.808 59.9943 221.794C52.8216 218.549 46.1117 216.926 39.4018 216.463C42.1783 211.131 44.9548 206.031 48.1941 200.931C48.4254 200.931 48.6568 200.931 48.6568 200.931C53.7471 199.077 58.1433 199.541 63.0022 200.004C64.3904 200.236 66.0101 200.236 67.3983 200.468C73.8769 200.931 80.5868 200.236 87.2968 198.845C93.7753 197.454 100.022 195.136 106.038 191.891C108.815 190.268 111.591 188.645 114.368 186.791C114.831 186.559 115.525 185.864 116.682 184.705C117.838 183.546 120.384 181.227 121.078 180.764C121.541 180.764 122.235 180.3 122.235 179.605C122.235 178.909 121.772 178.214 121.078 178.214C109.509 176.591 95.8577 174.969 82.9006 177.055C75.7279 178.214 69.2494 180.532 63.4649 183.777C59.9943 185.632 57.2178 188.414 54.4412 191.195C60.9198 181.691 67.8611 172.419 75.2652 163.61C76.6534 164.073 78.0417 164.305 79.1986 164.769C82.2065 165.696 85.2144 166.623 88.2223 167.319C99.3283 169.637 110.434 165.464 121.541 160.596C128.945 157.351 136.58 153.642 139.588 146.224C139.819 145.76 139.588 145.297 139.357 144.833C139.125 144.369 138.431 144.369 137.968 144.369C131.027 145.992 123.623 145.992 116.45 145.992C112.98 145.992 109.278 145.992 105.576 146.224C97.7087 146.687 91.2302 148.078 85.9085 150.86C90.9988 145.065 96.3204 139.27 101.642 133.706C101.873 133.474 102.105 133.242 102.336 133.011C103.493 131.852 104.65 130.692 105.807 129.302C107.195 128.606 109.74 127.911 111.129 127.447C112.054 127.215 112.748 126.983 113.211 126.752C117.144 125.361 121.309 124.665 125.474 123.97C133.341 122.579 141.67 121.188 148.612 115.161C152.082 112.148 154.859 108.439 157.404 104.961C159.255 102.411 161.337 99.6297 163.42 97.5434C164.345 97.3116 164.114 96.6161 163.651 96.1525ZM74.8024 237.326C76.6534 239.876 80.8182 245.903 79.6613 252.162C75.9593 250.539 65.316 244.744 63.6963 243.817C58.1433 240.339 52.5902 236.167 47.7313 231.531C44.492 228.517 41.9469 225.04 39.8645 221.794C48.4254 225.272 55.5981 231.531 62.5394 237.558C66.2415 240.803 70.1749 244.28 74.3397 247.294H74.571C75.0338 247.526 75.4965 247.294 75.7279 247.062C75.9593 246.598 75.9593 245.903 75.4965 245.671C71.5631 242.658 67.6297 239.412 63.9277 236.167C56.755 229.908 49.5823 223.417 40.5586 219.94C46.3431 220.404 52.1275 222.026 58.3747 224.808C65.0846 227.59 70.6376 231.994 74.8024 237.326ZM133.109 70.4214C133.109 67.1761 133.109 63.9307 133.803 60.6853C134.266 57.44 135.192 54.6582 136.58 51.8765C138.662 47.9357 141.208 44.2267 144.447 40.0541C145.835 38.4314 147.455 36.5769 149.306 34.4906C149.537 34.2588 150 33.7952 150.463 33.3315C150 37.0405 149.768 40.9813 149.768 44.6903C149.537 48.1675 149.537 51.8765 149.074 55.5855C147.455 70.1896 143.059 80.8529 134.96 89.1982C134.035 90.3572 132.878 91.2845 131.952 92.2117C131.721 92.4435 131.49 92.6753 131.49 92.6753C135.423 85.9528 138.662 79.2303 140.745 72.7395C141.67 69.4942 142.133 66.017 142.364 62.7716C142.827 57.6718 143.29 53.0355 146.066 48.6311C146.298 48.1675 146.298 47.4721 145.835 47.2402C145.372 47.0084 144.678 47.0084 144.447 47.4721C141.439 52.1083 140.976 57.44 140.513 62.5398C140.282 65.7852 140.051 69.0305 139.125 72.0441C137.043 78.5348 133.803 85.4892 129.639 92.2117C131.027 87.8073 132.415 83.1711 133.109 78.303C133.109 75.9849 133.109 73.2032 133.109 70.4214ZM97.4773 112.611C95.1636 105.889 94.4694 98.7024 95.6263 91.9799C96.7832 83.8665 100.717 76.2167 104.419 69.2624C104.881 73.2032 105.807 77.144 106.501 81.0848C107.427 84.7937 108.352 88.7345 108.583 92.4435C109.278 98.9343 108.815 105.657 106.964 113.307C105.807 117.711 104.187 122.115 102.336 126.52C103.725 117.479 103.956 110.061 102.799 102.18C101.873 95.2253 101.179 88.2709 103.956 82.4756C104.187 82.012 103.956 81.3166 103.493 81.0848C103.03 80.8529 102.336 81.0848 102.105 81.5484C99.097 87.8073 99.7911 95.2253 100.717 102.411C101.642 108.902 101.642 115.393 100.717 122.579C100.254 120.725 99.5597 118.87 98.8656 116.784C98.6342 115.393 98.1715 114.002 97.4773 112.611ZM66.9356 147.383C64.3904 142.978 61.6139 137.183 60.457 130.692C59.7629 125.824 59.9943 120.956 60.457 115.161C61.1512 108.902 62.0767 102.643 63.2336 96.3843L70.6376 113.307C72.9514 118.406 75.0338 123.506 76.422 129.07C78.5044 136.951 78.5044 145.297 76.6534 153.41L76.8848 154.569C76.6534 155.265 76.6534 156.192 76.422 156.887C75.9593 154.569 75.4965 152.483 75.2652 150.396C74.571 146.224 73.8769 142.051 72.4886 137.879L71.5631 135.329C69.7121 129.765 67.8611 124.202 68.3239 118.406C68.3239 117.943 67.8611 117.479 67.3983 117.247C66.9356 117.247 66.4728 117.711 66.2415 118.175C65.7787 124.434 67.6297 130.229 69.7121 136.024L70.6376 138.574C72.0259 142.515 72.72 146.687 73.1828 150.86C73.6455 153.178 73.8769 155.728 74.571 158.046C74.3397 157.814 74.1083 157.583 73.8769 157.351C70.869 154.337 68.7866 150.86 66.9356 147.383ZM33.386 164.537C32.9232 155.265 35.237 145.065 40.5586 133.706C43.5665 136.256 44.9548 140.197 46.3431 144.138C48.8882 151.556 51.4333 159.669 52.1275 168.014C52.8216 176.359 50.5078 184.241 47.9627 192.586C47.9627 192.818 47.9627 193.05 47.7313 193.05C45.4176 180.764 44.0293 168.246 43.7979 155.496C43.7979 155.033 43.3352 154.569 42.8724 154.569C42.4096 154.569 41.9469 155.033 41.9469 155.496C42.1783 168.014 43.5665 180.764 45.8803 193.05C39.4018 184.473 33.8487 175.896 33.386 164.537ZM34.7742 204.409C31.7663 205.568 27.8329 206.263 22.974 206.031C16.2641 205.799 9.32277 204.64 2.84422 203.25C10.0169 198.15 17.8837 193.977 26.2133 190.964C30.1467 189.573 34.7742 188.182 38.939 189.341C39.4018 189.573 39.6331 189.573 39.6331 189.573C39.8645 190.036 40.3273 190.5 40.79 190.5C41.9469 192.123 43.1038 193.745 44.2607 195.368C35.4684 194.209 26.676 195.136 18.1151 197.918C17.6523 198.15 17.421 198.613 17.421 199.077C17.421 199.309 17.6523 199.541 17.8837 199.772C18.1151 199.772 18.3465 199.772 18.5778 199.772C27.1388 196.991 36.1625 196.063 44.9548 197.454C41.7155 200.236 38.4762 202.786 34.7742 204.409ZM64.6218 186.559C70.1749 183.314 76.1907 181.227 83.132 180.068C94.7008 178.214 106.732 179.373 117.376 180.764C116.682 181.459 115.756 182.155 114.831 183.082C113.905 183.777 113.211 184.705 112.98 184.936C110.434 186.791 107.889 188.414 105.113 189.804C99.5597 192.818 93.3126 195.136 87.0654 196.527C80.8182 197.918 74.3396 198.381 67.8611 198.15C66.2415 198.15 64.8532 197.918 63.4649 197.686C60.457 197.454 57.4491 197.222 54.4412 197.454C66.7042 192.123 79.8927 188.877 93.0812 188.414C93.5439 188.414 94.0067 187.95 94.0067 187.486C94.0067 187.023 93.5439 186.559 93.0812 186.559C79.8927 187.023 66.7042 190.036 54.6726 195.368C57.6805 191.891 60.9198 188.877 64.6218 186.559ZM105.807 149.469C109.278 149.237 112.98 149.237 116.45 149.237C122.929 149.237 129.407 149.237 135.886 148.078C132.647 152.946 126.631 155.96 120.615 158.51C109.74 163.146 99.3283 167.087 88.9164 165.001C85.9085 164.305 82.9006 163.378 79.8927 162.682C78.9672 162.451 78.2731 162.219 77.3475 161.987C80.1241 160.133 83.8261 159.669 87.0654 159.669C89.6105 159.437 92.387 159.437 95.1636 159.437C104.187 159.205 113.674 158.973 122.003 155.496C122.466 155.265 122.697 154.801 122.466 154.105C122.235 153.642 121.772 153.41 121.078 153.642C112.98 157.119 103.725 157.351 94.9322 157.351C92.1557 157.351 89.6105 157.351 86.834 157.583C84.5202 157.583 82.4378 158.046 80.3554 158.51C81.5123 157.351 82.9006 156.192 84.2889 155.265C89.8419 151.787 96.7832 149.933 105.807 149.469ZM155.553 103.802C152.776 107.511 150.463 110.988 146.992 113.538C140.513 119.102 132.878 120.261 125.011 121.652C120.846 122.347 116.682 123.043 112.517 124.434C112.285 124.434 112.054 124.665 111.591 124.665C114.368 122.811 117.376 121.652 120.384 120.261L121.309 119.797C129.87 116.32 138.2 112.148 146.066 107.279C146.529 107.048 146.761 106.352 146.298 105.889C146.066 105.425 145.372 105.193 144.91 105.657C137.043 110.293 128.713 114.466 120.384 117.943L119.458 118.406C117.144 119.334 114.599 120.261 112.517 121.652C113.442 120.493 114.599 119.102 115.525 117.943C116.219 117.247 117.144 116.32 117.838 115.625C121.772 111.684 125.011 108.67 128.945 106.12C131.952 104.034 135.192 102.643 138.431 101.716C141.902 100.789 145.141 100.789 148.38 100.789C149.768 100.789 151.388 100.789 153.008 100.557C153.471 100.557 156.016 100.325 158.329 99.6297C157.635 101.252 156.478 102.643 155.553 103.802Z" fill="#6F9969"/>
<path d="M497.991 246.135C486.653 251.003 475.778 255.639 475.778 254.712C473.927 244.744 470.919 234.776 467.449 225.04C464.21 216.231 458.194 207.422 462.359 197.686C463.053 196.295 463.747 194.904 465.135 194.209C466.986 193.282 469.3 193.745 470.919 194.904C472.539 196.064 473.696 197.918 474.621 199.773C476.935 204.177 478.323 209.045 478.786 213.913C478.555 206.727 478.323 199.773 478.786 192.586C479.018 189.341 479.249 186.096 480.637 183.314C481.794 180.996 484.571 178.909 487.116 179.605C489.198 180.3 490.124 182.618 490.818 184.937C492.437 190.268 493.363 196.064 493.594 201.627C493.594 192.355 496.139 182.85 501.23 175.2C503.081 172.187 505.626 169.405 508.865 168.014C512.336 166.623 516.501 166.855 518.583 170.564C520.434 173.81 518.814 179.373 517.889 182.85C515.575 192.586 510.485 201.395 504.006 208.813C508.171 206.495 512.567 204.409 517.195 203.018C520.203 202.091 523.905 201.859 525.524 204.409C526.45 206.031 526.218 208.118 525.062 209.509C524.136 211.131 522.516 212.059 521.128 213.218C516.038 216.695 510.716 219.708 505.163 222.258C508.634 221.331 512.336 220.404 516.038 220.404C519.74 220.404 523.442 221.795 525.987 224.576C526.681 225.504 527.375 226.663 527.607 227.822C527.838 230.835 525.293 233.153 522.748 234.544C520.434 235.935 508.865 241.267 497.991 246.135Z" fill="#6F9969"/>
<path d="M820.992 226.894C819.604 225.503 817.985 224.576 816.134 224.576C814.283 224.576 812.432 225.04 811.043 226.431C808.035 228.981 808.035 233.617 810.581 236.63C811.737 238.021 813.357 238.717 815.208 238.949H815.439C817.29 238.949 819.141 238.485 820.53 237.094C821.918 235.703 822.843 234.08 822.843 232.226C823.075 230.14 822.381 228.285 820.992 226.894Z" fill="#6F9969"/>
<path d="M851.303 230.603C849.915 229.212 848.295 228.285 846.444 228.285C844.593 228.285 842.742 228.749 841.354 230.14C838.346 232.69 838.346 237.326 840.891 240.339C842.048 241.73 843.667 242.426 845.518 242.657H845.75C847.601 242.657 849.452 242.194 850.84 240.803C852.228 239.412 853.154 237.789 853.154 235.935C853.154 233.849 852.46 231.994 851.303 230.603Z" fill="#6F9969"/>
<path d="M827.702 251.698C825.851 251.698 824 252.162 822.612 253.553C819.604 256.103 819.604 260.739 822.149 263.752C823.306 265.143 824.926 265.839 826.777 266.071H827.008C828.859 266.071 830.71 265.607 832.099 264.216C833.487 262.825 834.412 261.203 834.412 259.348C834.412 257.494 833.95 255.639 832.561 254.248C831.404 252.625 829.785 251.698 827.702 251.698Z" fill="#6F9969"/>
<path d="M187.946 400.29C186.095 400.29 184.244 400.985 182.855 402.376C181.467 403.767 180.773 405.389 180.773 407.476C180.773 411.416 184.012 414.662 187.946 414.662C189.797 414.662 191.416 413.966 192.805 412.807C192.805 412.807 192.805 412.807 193.036 412.576C194.424 411.185 195.118 409.562 195.118 407.476C195.118 405.621 194.424 403.767 193.036 402.376C191.648 400.985 190.028 400.29 187.946 400.29Z" fill="#6F9969"/>
</g>
</g>
</svg>
