<svg width="72" height="64" viewBox="0 0 72 64" fill="none" xmlns="http://www.w3.org/2000/svg">
<g clip-path="url(#clip0_23_222)">
<path d="M26.4499 33.1975C25.4902 33.1975 24.5549 33.1975 23.6161 33.1975C22.3191 33.1975 21.0222 33.194 19.7218 33.194C19.6279 33.194 19.5375 33.1905 19.4436 33.1975C19.1898 33.2183 19.009 33.3365 18.9186 33.5833C18.8873 33.6702 18.8491 33.7537 18.8143 33.8406C18.098 35.4952 16.8463 36.4651 15.066 36.7258C11.9471 37.1812 9.34978 34.6088 9.62794 31.4733C9.81222 29.3911 11.5681 27.5834 13.6404 27.2567C15.8588 26.9056 18.0945 28.164 18.8769 30.3018C19.0299 30.7224 19.155 30.8024 19.5619 30.8024C21.6481 30.7989 23.7343 30.7954 25.8205 30.7954C26.3873 30.7954 26.3873 30.7954 26.6098 30.2566C26.9054 29.5405 27.1974 28.8244 27.5034 28.1118C27.5799 27.938 27.5695 27.8303 27.4269 27.6912C25.5215 25.7932 23.6196 23.8952 21.7211 21.9903C21.5785 21.8443 21.4673 21.8512 21.2969 21.9138C20.4867 22.2197 19.6557 22.3866 18.783 22.3483C17.6808 22.2997 16.7385 21.8964 15.9422 21.1421C13.9569 19.2615 13.9047 16.0703 15.8518 14.2106C16.9854 13.126 18.3692 12.7193 19.913 12.9452C21.9367 13.2407 23.2406 14.4087 23.8247 16.3589C24.1689 17.506 24.009 18.6253 23.5292 19.7099C23.3936 20.0123 23.3936 20.0158 23.6126 20.2313C25.4833 22.098 27.3539 23.9613 29.2211 25.8315C29.3567 25.9705 29.4645 26.0226 29.6661 25.9357C30.4798 25.5777 31.3038 25.237 32.1279 24.9033C32.3261 24.8234 32.3991 24.7156 32.3748 24.5175C32.3713 24.4931 32.3748 24.4723 32.3748 24.4479C32.3782 22.317 32.3817 20.1861 32.3887 18.0552C32.3887 17.9614 32.3852 17.871 32.3817 17.7771C32.3713 17.5686 32.2635 17.433 32.0792 17.3496C31.9645 17.2974 31.8428 17.2557 31.7246 17.207C29.7705 16.3867 28.5952 14.3983 28.8212 12.3021C29.0472 10.2025 30.6536 8.47487 32.7259 8.09944C35.3546 7.6232 37.8511 9.32306 38.317 11.9337C38.6334 13.7065 38.0215 16.0078 35.6919 17.1097C35.4937 17.2036 35.292 17.2905 35.0834 17.3635C34.8782 17.4365 34.7913 17.5686 34.7983 17.7841C34.8052 18.0622 34.8052 18.3403 34.8052 18.6184C34.8052 20.565 34.8052 22.5082 34.8052 24.4549C34.8052 24.7921 34.7322 24.7643 35.1251 24.9242C35.97 25.2683 36.8184 25.6125 37.6564 25.9705C37.8233 26.04 37.9241 26.0226 38.0458 25.894C39.7982 24.0412 41.6306 22.2718 43.4318 20.4677C43.4561 20.4434 43.4804 20.419 43.5048 20.3947C43.7864 20.1027 43.8142 19.988 43.6473 19.623C43.4665 19.2198 43.3274 18.8061 43.2544 18.3681C42.865 15.9973 44.3115 13.6996 46.6237 13.0217C49.3497 12.2222 52.1626 13.929 52.712 16.7204C53.2301 19.3449 51.3872 21.9451 48.7447 22.3448C47.7259 22.4978 46.7593 22.3553 45.8448 21.8964C45.6536 21.8026 45.5493 21.8304 45.4067 21.9764C43.5256 23.8639 41.6376 25.7445 39.7496 27.6217C39.6174 27.7538 39.5757 27.8546 39.6557 28.0388C40.0138 28.8662 40.3615 29.7004 40.6988 30.5347C40.7718 30.7155 40.8692 30.792 41.0569 30.785C41.1856 30.7781 41.3108 30.792 41.4394 30.792C43.4561 30.792 45.4728 30.792 47.4895 30.792C48.1014 30.792 48.1258 30.7676 48.3553 30.208C49.0472 28.5464 50.285 27.5417 52.0653 27.2706C53.9637 26.9821 55.5006 27.6425 56.6654 29.1616C57.2182 29.8812 57.4582 30.7224 57.5242 31.6158C57.5729 32.2902 57.5173 32.9576 57.2982 33.6042C56.7593 35.1615 55.6362 36.107 54.0959 36.5729C51.8184 37.2646 49.3775 36.1175 48.4248 33.9344C48.3865 33.851 48.3553 33.7641 48.3205 33.6772C48.1536 33.267 48.0354 33.1836 47.5868 33.1836C46.7419 33.1871 45.897 33.2044 45.0486 33.2044C43.7377 33.2044 42.4304 33.201 41.1195 33.1836C40.8866 33.1801 40.7753 33.2496 40.6884 33.4686C40.372 34.2751 40.0347 35.0746 39.6905 35.8707C39.6035 36.0723 39.6383 36.194 39.7913 36.3434C41.6863 38.2171 43.5708 40.0977 45.4624 41.9783C45.6501 42.1626 45.6501 42.1591 45.9352 42.0339C47.7155 41.2518 49.4192 41.4117 50.9422 42.6006C52.5242 43.8416 53.1188 45.531 52.6424 47.4881C52.1626 49.4556 50.8587 50.6792 48.8664 51.072C46.2934 51.5795 43.8351 49.9075 43.3066 47.3386C43.164 46.6468 43.1745 45.9586 43.3866 45.2772C43.4874 44.9574 43.5882 44.6376 43.6821 44.3143C43.7656 44.0293 43.7204 43.7998 43.4839 43.5669C41.6654 41.7663 39.8608 39.9482 38.0597 38.1302C37.9102 37.9772 37.785 37.939 37.5799 38.0294C36.7732 38.3805 35.9665 38.7281 35.146 39.0409C34.8817 39.1418 34.8017 39.2808 34.8052 39.5485C34.8156 41.516 34.8087 43.487 34.8087 45.4545C34.8087 45.6526 34.8017 45.8473 34.8052 46.0455C34.8087 46.4383 34.8643 46.5147 35.2364 46.6607C36.05 46.9771 36.7593 47.4394 37.3156 48.1173C39.2871 50.5158 38.623 54.5482 34.9686 55.751C34.3219 55.963 33.6752 55.9561 33.018 55.9526C32.9937 55.9526 32.9693 55.9561 32.9485 55.9456C32.0583 55.6258 31.1439 55.3651 30.4068 54.7185C29.162 53.6305 28.6856 52.2644 28.849 50.6479C28.8977 50.1613 29.009 49.6885 29.1967 49.2366C29.6835 48.0582 30.5563 47.276 31.7072 46.7755C31.7906 46.7372 31.8775 46.7059 31.9645 46.6677C32.333 46.5078 32.4165 46.3757 32.4165 45.9759C32.4061 44.2726 32.3956 42.5728 32.3887 40.8694C32.3852 40.3828 32.3887 39.8961 32.4026 39.4094C32.4095 39.2287 32.3435 39.1418 32.18 39.0757C31.2899 38.7142 30.4033 38.3492 29.5201 37.9807C29.381 37.9216 29.2802 37.9147 29.162 38.0502C27.7885 39.5728 26.2899 40.9737 24.8504 42.4372C24.468 42.8265 24.082 43.2089 23.6856 43.5808C23.4457 43.8033 23.4075 44.0327 23.5396 44.3247C23.8178 44.9296 23.9881 45.5623 24.0194 46.2297C24.082 47.5993 23.55 48.7325 22.6286 49.7059C21.2134 51.2076 19.3324 51.5239 17.3609 50.7696C15.7058 50.1369 14.8053 48.8716 14.4993 47.1683C14.0299 44.5368 15.7197 42.1313 18.3588 41.6516C19.381 41.4673 20.365 41.6585 21.3073 42.0618C21.5855 42.1799 21.5229 42.2217 21.7698 41.9748C23.6474 40.1012 25.525 38.2275 27.4095 36.3573C27.573 36.194 27.6112 36.0723 27.5139 35.8533C27.1835 35.1024 26.8776 34.3411 26.5611 33.5833C26.5055 33.4791 26.4325 33.3574 26.4499 33.1975ZM50.365 31.9982C50.3685 33.3261 51.4394 34.3968 52.7746 34.4037C54.0959 34.4107 55.1737 33.3226 55.1703 31.9878C55.1668 30.6529 54.0924 29.5753 52.7641 29.5857C51.4324 29.5927 50.3615 30.6703 50.365 31.9982ZM33.6056 10.4459C32.26 10.4424 31.1926 11.4957 31.1891 12.8305C31.1856 14.1584 32.2635 15.243 33.5882 15.243C34.9234 15.243 35.9944 14.1793 36.0013 12.8479C36.0083 11.5061 34.9547 10.4493 33.6056 10.4459ZM33.5674 53.5436C34.9234 53.554 35.9909 52.5181 36.0013 51.1833C36.0117 49.8484 34.9512 48.7604 33.6265 48.7499C32.2948 48.7395 31.203 49.7997 31.1821 51.1242C31.1647 52.4486 32.2322 53.5332 33.5674 53.5436ZM12.0341 31.9947C12.0375 33.34 13.098 34.4072 14.4263 34.4037C15.751 34.3968 16.8359 33.3122 16.8324 31.9912C16.8324 30.6668 15.7441 29.5823 14.4228 29.5857C13.0876 29.5892 12.0306 30.6529 12.0341 31.9947ZM47.9728 15.2326C46.6306 15.2326 45.5667 16.2963 45.5736 17.6311C45.5771 18.9625 46.6515 20.0332 47.9832 20.0297C49.3184 20.0262 50.3789 18.959 50.3789 17.6207C50.3754 16.2754 49.3219 15.2326 47.9728 15.2326ZM19.2141 48.743C20.5667 48.743 21.6307 47.6897 21.6237 46.3514C21.6168 45.0165 20.5354 43.9493 19.2037 43.9563C17.8651 43.9667 16.8185 45.0304 16.8219 46.3792C16.8289 47.714 17.8685 48.743 19.2141 48.743ZM47.9797 48.7569C49.3219 48.7569 50.3824 47.6932 50.3789 46.3514C50.3754 45.0339 49.3114 43.9667 47.9936 43.9597C46.6446 43.9493 45.5736 45.0304 45.5806 46.3896C45.584 47.7105 46.648 48.7569 47.9797 48.7569ZM19.2176 15.2326C17.9659 15.1874 16.8046 16.2546 16.8185 17.6277C16.8324 18.966 17.8511 19.9949 19.2002 19.9984C20.5598 20.0054 21.6237 18.9729 21.6203 17.6242C21.6133 16.119 20.3651 15.1874 19.2176 15.2326Z" fill="#71D840"/>
<path d="M60.205 41.3075C58.7968 41.4396 57.3921 41.5717 55.9839 41.7038C56.0361 41.4466 62.5173 29.4572 63.0249 28.682C65.9526 32.5162 68.8733 36.34 71.8253 40.209C71.3837 40.2542 70.9978 40.2959 70.6084 40.3307C69.454 40.4419 68.3031 40.5497 67.1487 40.6575C66.3316 40.7339 65.511 40.8174 64.6939 40.8834C64.2732 40.9182 64.3462 40.9008 64.2384 41.2623C63.1744 44.7837 61.5646 48.0374 59.3532 50.9817C54.7843 57.0651 48.8316 61.1113 41.4499 63.0267C39.6766 63.4856 37.872 63.7637 36.043 63.9027C34.2837 64.0348 32.5208 64.0418 30.7649 63.8749C24.2732 63.2666 18.4631 60.9479 13.3936 56.8426C8.69261 53.0362 5.3303 48.2634 3.32057 42.5555C2.58692 40.4628 2.08622 38.3145 1.81501 36.1141C1.78719 35.8742 1.7559 35.6309 1.72809 35.391C1.65159 34.6784 2.16619 34.0875 2.87899 34.077C3.34143 34.0701 3.80736 34.0736 4.26981 34.077C4.95478 34.0805 5.42766 34.5046 5.50416 35.1859C5.65715 36.5556 5.91097 37.9078 6.26911 39.2392C7.55561 44.0224 9.93044 48.1904 13.4005 51.7291C17.0723 55.4764 21.4603 58.0106 26.5403 59.3385C29.3289 60.0685 32.1696 60.357 35.0451 60.1867C42.2044 59.7626 48.3553 57.0233 53.47 52.0037C56.4637 49.0629 58.6647 45.5971 60.1112 41.6586C60.1494 41.5474 60.205 41.4466 60.205 41.3075Z" fill="#71D840"/>
<path d="M11.9541 22.0286C8.36577 24.7017 4.81223 27.3506 1.21001 30.0342C0.803198 25.5291 0.39986 21.0935 0 16.6509C0.170375 16.6405 0.264255 16.7135 0.36509 16.7621C1.62726 17.3357 2.8929 17.9093 4.15507 18.4794C4.47148 18.6219 4.42976 18.681 4.60361 18.3195C7.69122 11.9337 12.3574 7.05663 18.6057 3.69864C21.5194 2.13088 24.621 1.0915 27.879 0.504025C30.3303 0.0625497 32.8024 -0.0973547 35.2851 0.0521212C41.9054 0.441454 47.8824 2.62102 53.1293 6.6812C58.8281 11.089 62.6285 16.7969 64.5235 23.7562C64.6835 24.3472 64.8156 24.9451 64.9443 25.5465C65.0729 26.1409 64.7148 26.5754 64.1028 26.5789C63.4074 26.5824 62.712 26.5824 62.0166 26.5789C61.5194 26.5754 61.2551 26.3599 61.1438 25.8628C60.445 22.7655 59.2871 19.8525 57.5834 17.1723C53.4631 10.6823 47.6738 6.46568 40.2155 4.57116C37.6425 3.91764 35.0138 3.68473 32.3609 3.80292C21.8706 4.26873 12.9937 10.3833 8.4979 19.0321C8.34839 19.3206 8.20583 19.6091 8.06327 19.9011C7.92071 20.1897 7.92419 20.1931 8.20583 20.3217C8.97425 20.6728 9.74268 21.0205 10.5111 21.3681C10.9701 21.5767 11.4325 21.7887 11.9541 22.0286Z" fill="#71D840"/>
</g>
<defs>
<clipPath id="clip0_23_222">
<rect width="71.8253" height="64" fill="white"/>
</clipPath>
</defs>
</svg>
